<svg xmlns="http://www.w3.org/2000/svg" version="1.1" xmlns:xlink="http://www.w3.org/1999/xlink" width="1000" height="1000"><g clip-path="url(#SvgjsClipPath1236)"><rect width="1000" height="1000" fill="#fbe5bc"></rect><g transform="matrix(0.48494776034959347,0,0,0.48494776034959347,50,332.118359583376)"><svg xmlns="http://www.w3.org/2000/svg" version="1.1" xmlns:xlink="http://www.w3.org/1999/xlink" width="1855.87" height="692.37"><svg xmlns="http://www.w3.org/2000/svg" viewBox="0 0 1855.87 692.37"><defs><style>.e{fill:#f8f7f7;}.f{fill:#dd9783;}.g{fill:#dc6442;}.h{font-family:WeddingRegular, Wedding;font-size:154.47px;}.h,.i{fill:#dcbada;}.j{isolation:isolate;}.k{fill:#f2cbc2;}.l{mix-blend-mode:multiply;}.m{fill:#f3b69c;}.n{fill:#dc6440;}</style><clipPath id="SvgjsClipPath1236"><rect width="1000" height="1000" x="0" y="0" rx="500" ry="500"></rect></clipPath></defs><g class="j"><g id="b"><g id="c"><g class="l"><path class="i" d="M1619.61,586.63c-.76-1.05-.76-2.47,0-3.53l67.09-92.38c.43-.6.64-1.34.56-2.07-.29-2.82-1.56-5.36-3.46-7.27-2.18-2.17-5.18-3.52-8.48-3.52h-808c.61,0,1.18.19,1.65.5H204.33c-3.3,0-6.3,1.35-8.47,3.52-1.91,1.91-3.18,4.45-3.46,7.27-.07.73.13,1.47.56,2.06,6.28,8.64,58.26,80.21,67.1,92.39.76,1.05.76,2.47,0,3.52l-65.02,89.52c-2.69,3.7-2.45,8.87.76,12.13.02.02.04.04.07.07,2.17,2.17,5.17,3.53,8.47,3.53h808c-.61,0-1.18-.19-1.65-.5h664.65c3.3,0,6.3-1.35,8.48-3.53,1.91-1.91,3.18-4.45,3.46-7.27.07-.73-.13-1.47-.56-2.07l-67.09-92.38Z"></path><text class="h" transform="translate(405.96 629.51) rotate(.09)"><tspan x="0" y="0">Wedding Edition</tspan></text></g><path class="m" d="M1607.43,580.46c-.76-1.05-.76-2.47,0-3.53l67.09-92.38c.43-.6.64-1.34.56-2.07-.29-2.82-1.56-5.36-3.46-7.27-2.18-2.17-5.18-3.52-8.48-3.52h-808c.61,0,1.18.19,1.65.5H192.15c-3.3,0-6.3,1.35-8.47,3.52-1.91,1.91-3.18,4.45-3.46,7.27-.07.73.13,1.47.56,2.06,6.28,8.64,58.26,80.21,67.1,92.39.76,1.05.76,2.47,0,3.52l-65.02,89.52c-2.69,3.7-2.45,8.87.76,12.13.02.02.04.04.07.07,2.17,2.17,5.17,3.53,8.47,3.53h808c-.61,0-1.18-.19-1.65-.5h664.65c3.3,0,6.3-1.35,8.48-3.53,1.91-1.91,3.18-4.45,3.46-7.27.07-.73-.13-1.47-.56-2.07l-67.09-92.38Z"></path><path class="g" d="M552.76,577.3c-8.11,6.68-18.44,9.06-26.69,3.52-3.51,8.82-7.99,17.28-13.16,25.23-5.63,8.65-16.33,18.32-27.02,11.51-9.21-5.87-12.73-18.1-14.57-28.93-1.32,2.16-2.56,4.35-3.68,6.6-3.08,6.2-4.36,13.9-8.99,19.22-4.6,5.29-12.4,7.97-18.53,3.17-6.12-4.79-7.92-13.42-9.43-20.53-3.24-15.24-3.13-31.01-1.84-46.47.73-8.75,2.65-17.31,4.39-25.91.46-2.28.99-4.64,1.7-6.92-5.64,1.21-11.36,2.31-16.81,4.08-3.96,1.29-8.19,3.5-9.83,7.61-1.81,4.53.84,9.96,5.62,11.29.17.05.27.3.08.39-3.31,1.66-6.4,1.17-9.1-1.44-4.08-3.95-4.06-9.57-1.42-14.31,6.41-11.5,23.35-13.32,34.87-16.16.38-.09.74-.12,1.08-.13,1.67-1.89,3.79-3.39,6.55-4.25,4.45-1.38,6.56,3.63,4.86,7.05-2.26,4.55-2.37,9.78-2.8,14.75-.54,6.12-1.1,12.24-1.44,18.38-.69,12.51-2.01,24.73-.87,37.28.52,5.73,1.42,11.39,2.88,16.96.65,2.49,1.12,5.08,2.16,7.43,2.34,5.25,5.63-1.34,6.92-3.75,3.87-7.25,7.98-14.35,12.63-21.1-.73-5.85-.85-11.71-.4-17.59.59-7.69,2.58-13.64,6.67-20.28,4.71-7.65,14-1.51,12.4,6.11-1.82,8.69-3,17.82-2.23,26.7.41,4.72,1.21,9.39,2.4,13.98.98,3.78,1.41,8.52,3.18,12.05,5.77,11.5,15.62-3.17,19.05-8.68,3.66-5.89,6.73-12.18,9.24-18.66-7.08-9.43-8.84-22.77-9.42-34.19-.33-6.47-.14-12.95.44-19.4.45-4.99.93-10,3.32-14.49,4.76-8.92,12.92-4.4,16.74,2.85,4.81,9.13,3.88,22.18,3.17,32.2-.73,10.34-2.79,20.59-5.98,30.45,2.52,2.47,5.73,4.06,9.5,3.75,3.99-.34,8.2-2.08,11.99-3.33,2.31-.77,4.37,2.31,2.36,3.96ZM518.9,544.77c1.04,6.65,2.26,14.27,5.11,20.68,3.83-13.33,5.32-27.37,4.29-41.19-.35-4.62-.86-9.39-3.75-13.19-.28-.37-2.15-2.8-2.75-2.77-.95.05-2.91,2.78-3.25,3.54-1.01,2.27-.84,5.62-.93,8.11-.32,8.29,0,16.62,1.29,24.82Z"></path><path class="g" d="M603.71,578.39c-11.02,14.34-20.21,30.31-32.4,43.61-2.5,2.72-4.46,4.59-8.48,4.94-3.86.33-7.25-1.5-9.73-4.36-4.81-5.56-6.48-13.66-6.98-20.8-.6-8.61.64-17.48,3.52-25.63,2.42-6.82,6.09-15.74,11.67-20.64,4.43-3.88,12.78-3.8,16.44,1.23,3.19,4.38,2.89,11.48,1.89,16.48-2.15,10.85-10.11,19-20.41,21.84-.02.75-.02,1.49,0,2.23.1,4.48.91,10.08,3.06,14.1,1.35,2.53,3.78,2.76,6.14,3.58,7.31-3.39,12.49-11.66,17.2-17.81,5.23-6.84,10.06-13.97,15.38-20.75,1.33-1.71,4.1.15,2.69,1.98ZM559.32,593.06c6.77-2.95,12.27-8.5,14.52-15.72,1.34-4.28,1.53-9.02.38-13.36-.17-.74-.4-1.47-.69-2.18-2.08-1.88-3.55-1.74-4.41.42-1.18,1.12-2.1,3.14-2.73,4.51-3.73,8.08-6.52,17.26-7.06,26.33Z"></path><path class="g" d="M681.94,579.07c-6.37,10.5-13.77,20.51-19.34,31.45-3.59,7.05-12.66,19.5-21.49,10.48-6.94-7.09-6.38-19.26-6.82-28.44-.05-1.05-.09-2.1-.14-3.15-1.26,4.24-2.54,8.47-3.81,12.71-2.21,7.37-3.28,14.83-10.79,18.81-8.3,4.4-15.56-1.46-18.44-9.24-3.16-8.58-3.46-18.51-2.82-27.51.84-11.73,3.8-35.22,19.76-35.86,9.26-.37,14.09,6.19,16.18,13.94.03-.48.05-.96.08-1.44,1.18-19.25,5.25-40.41,17.2-56.17,4.27-5.63,11.45-8.36,17.1-2.75,5.93,5.88,3.46,16.2,2.03,23.4-3.38,17.04-11.98,32.62-23.2,45.75,0,.77.02,1.54.03,2.31.2,9.58.21,19.4,1.17,28.93.19,1.84.47,3.66.9,5.46.58,2.33,1.35,4.61,2.32,6.82,1.34-.6,2.46-1.48,3.37-2.63,2.76-3,5.41-6.44,7.73-9.78,5.6-8.08,10.59-16.73,15.56-25.21,1.31-2.23,4.83-.23,3.4,2.13ZM633.9,580.1c-.03-2.33-.04-4.66-.01-6.99-.61-3.46-1.27-6.95-2.73-10.08-2.3-4.93-8.4-10.8-14.26-7.32-3.65,2.16-4.43,7.64-4.83,11.47-.95,8.9-.78,17.72-.26,26.67.25,4.19.2,10.21,2.5,13.96.48.78,1.19,1.52,1.87,2.12,2.06,1.79,3.46,3.33,5.53,1.18,1.23-1.28,2.16-2.93,2.98-4.5,4.21-8.06,6.64-17.58,9.22-26.5ZM647.47,564.14c8.89-12.32,14.39-26.81,16.5-41.95.51-3.68,2.16-10.64-.51-13.76-4.77-5.59-9.26,11.43-10,13.78-2.46,7.73-3.77,16.01-4.79,24.05-.75,5.93-1.1,11.91-1.2,17.88Z"></path><path class="g" d="M760.1,579.19c-6.37,10.5-13.77,20.51-19.34,31.45-3.59,7.05-12.66,19.5-21.49,10.48-6.94-7.09-6.38-19.26-6.82-28.44-.05-1.05-.09-2.1-.14-3.15-1.26,4.24-2.54,8.47-3.81,12.71-2.21,7.37-3.28,14.83-10.79,18.81-8.3,4.4-15.56-1.46-18.44-9.24-3.16-8.58-3.46-18.51-2.82-27.51.84-11.73,3.8-35.22,19.76-35.86,9.26-.37,14.09,6.19,16.18,13.94.03-.48.05-.96.08-1.44,1.18-19.25,5.25-40.41,17.2-56.17,4.27-5.63,11.45-8.36,17.1-2.75,5.93,5.89,3.46,16.2,2.03,23.4-3.38,17.03-11.98,32.62-23.2,45.75,0,.77.02,1.54.03,2.31.2,9.58.21,19.4,1.17,28.93.19,1.84.47,3.66.9,5.46.58,2.33,1.35,4.6,2.32,6.82,1.34-.6,2.46-1.48,3.37-2.63,2.76-3,5.41-6.44,7.73-9.78,5.6-8.08,10.59-16.73,15.56-25.21,1.31-2.23,4.83-.23,3.4,2.13ZM712.06,580.22c-.03-2.33-.04-4.66-.01-6.99-.61-3.46-1.27-6.95-2.73-10.08-2.3-4.93-8.4-10.79-14.26-7.32-3.65,2.16-4.43,7.64-4.83,11.48-.95,8.89-.78,17.72-.26,26.66.25,4.2.2,10.21,2.5,13.96.48.78,1.19,1.52,1.87,2.12,2.06,1.79,3.46,3.33,5.53,1.18,1.23-1.28,2.16-2.93,2.98-4.5,4.21-8.06,6.64-17.58,9.22-26.5ZM725.63,564.26c8.89-12.32,14.39-26.81,16.5-41.95.51-3.68,2.16-10.64-.51-13.76-4.77-5.59-9.26,11.43-10,13.78-2.46,7.73-3.77,16.01-4.79,24.05-.75,5.93-1.1,11.91-1.2,17.88Z"></path><path class="g" d="M797.99,579.29c-7.4,8.71-12.47,19.78-17.66,29.9-3.14,6.11-12.98,15.08-20.05,8.77-7.29-6.51-5.91-19.26-5.71-28.01.13-5.66.32-11.4,1.41-16.97.61-3.15,1.33-6.26,2.12-9.37.19-.77.35-1.57.59-2.33.52-1.6,6.61-8.13,6.53-8.27-.19-.31,3.44.65,3.86,1.03,1.94,1.81,1.95,4.37,1.98,6.88.05,4.86-.86,9.78-1.14,14.64-.36,6.46-.94,12.9-.9,19.38.02,3.51-.83,11.22,1.61,14.76,5.77-2.44,9.47-12.45,12.31-17.29,3.38-5.76,6.78-11.42,11.26-16.41,2.29-2.55,6.08.61,3.81,3.3ZM762.09,536.36c-.04-4.25,1.28-8.97,3.55-12.52,2.42-3.77,9.08-1.81,8.89,2.71-.12,2.87-.43,5.68-.47,8.56-.04,3.78-2.81,9.68-7.29,8.38-2.83-.82-4.66-4.29-4.69-7.13Z"></path><path class="g" d="M877.45,579.67c.11,2.95-1.42,5.21-2.79,7.75-2.04,3.8-4.18,7.55-6.16,11.39-2.88,5.6-5.52,12.06-10.63,16.04-4.62,3.6-10.77,4.58-15.66.74-6.62-5.19-5.96-14.67-5.52-22.12.54-9.12.7-18.23,1.3-27.35.19-2.87.45-9.2-4.37-6.84-1.46.71-2.73,1.79-3.87,2.93-2.63,2.61-4.5,6.06-6.29,9.27-4.02,7.21-7.58,14.69-10.53,22.4-1.46,3.81-2.64,7.64-3.59,11.6.41,5.1,1.23,10.38.52,15.42-.11-.13-.21-.26-.32-.39.11,8.33-10.88,11.91-13.44,2.68-2.75-9.93-2.33-21.18-2.76-31.47-.41-9.66-.66-19.32-.79-28.98-.05-4.04,2.05-8.39,6.6-8.78,4.05-.35,8.07,3.23,8.16,7.35.23,9.79.59,19.58,1.12,29.35.02.37.05.73.07,1.1.08-.19.15-.39.22-.58,2.67-6.67,5.76-13.18,9.19-19.5,4.71-8.65,12.37-21.24,24.32-17.62,6.24,1.89,6.16,9.83,6.86,15.07,1.28,9.63.78,19.23.69,28.91-.02,1.98-.18,6.51,2.24,7.58,3.34,1.47,7.12-4.98,8.72-6.95,2.86-3.54,5.55-7.16,8.08-10.94,2.16-3.24,3.87-6.84,7.28-8.88.64-.38,1.33.17,1.36.82Z"></path><path class="g" d="M954.4,578.84c-7.71,10.8-15.38,21.86-24.17,31.82-1.53,1.73-3.07,3.46-4.6,5.19-.29,3.09-.61,6.17-.94,9.23-1,9.13-2.13,18.25-3.89,27.27-1.42,7.3-4.27,15.41-11.4,18.99-7.09,3.56-16.23-.15-18.56-7.73-1.93-6.28-.64-12.89,2.75-18.36,4.16-6.73,10.09-12.41,15.35-18.27,1.49-1.66,2.98-3.31,4.47-4.97.17-1.18.36-2.37.52-3.55,2.09-15.11,3.18-30.34,5.09-45.46-5.67,9.75-9.14,21.08-13.4,31.28-2.61,6.25-5.89,14.95-11.7,18.91-6.47,4.41-13.36.84-17.28-5.02-8.63-12.91-5.3-30.18-.99-44,3.92-12.58,13.71-27.91,29.27-23.83,6.88,1.81,11.43,8.03,12.72,14.84,1.3-1.77,2.7-3.47,4.23-5.08,2.44-2.57,6.55.61,4.05,3.34-.14.15-.26.31-.4.46,2.01,14.43,1.86,29.12.79,43.7.29-.32.58-.64.86-.96,8.44-9.5,16.01-19.93,23.82-29.95,1.58-2.03,5.02-.14,3.4,2.13ZM914.08,570.61c-.78-5.03-2.5-9.95-8.5-10.56-6.66-.68-12.03,5.65-14.68,10.89-4.78,9.45-8.48,24.3-5.05,34.62.78,2.35,1.67,4.82,4.27,5.18,3,.42,5.25-3.54,6.87-5.73,3.73-5.04,6.03-10.79,8.47-16.52,2.6-6.1,5.26-12.21,8.63-17.88ZM911.96,631.27c-4.88,5.45-11.75,11.33-14.49,18.21-.84,2.12-1.34,4.27-.62,6.46,1.4,4.25,5.76,5.24,8.83,1.82,2.78-3.09,3.04-8.25,3.75-12.16.87-4.76,1.72-9.54,2.52-14.33Z"></path><path class="g" d="M1115.74,577.08c-9.37,12.55-19.41,24.69-30.31,35.96-4.76,4.92-9.38,10.08-15.34,13.56-6.6,3.85-16.56,7.82-23.91,4.34-16.44-7.8-16.82-28.44-8.21-42.2,3.77-6.02,8.73-11.87,13.61-17.03.99-1.05,2.03-2,3.1-2.91-3.83.37-7.61.1-11.04-1.12-8.33-2.98-12.92-12.04-13.81-20.41-.78-7.3.94-13.98,4.3-19.79-8.96-4.97-18.3-8.13-28.72-2.6-.79.42-1.65-.72-.87-1.26,9.94-6.89,22.33-5.48,32.97-1.03,4.24-5.24,9.87-9.54,16.08-12.65,8.14-4.08,17.88-5.66,26.3-1.34,7.51,3.86,10.09,10.76,6.84,18.42-5.54,13.03-22.29,16.85-34.33,11.09-1.44-.69-2.88-1.46-4.31-2.27-.24.42-.49.82-.7,1.25-2.26,4.51-3.01,9.91.11,14.2,6.16,8.44,14.64,8.41,23.81,6.04,3.88-1,4.71,4.46,1.6,5.99-4.76,2.35-8.43,6.72-11.91,10.65-3.52,3.96-7.13,8.14-9.22,13.06-2.67,6.32-5.04,13.48-4.12,20.41.74,5.58,3.25,7.76,8.11,10.31,12.07,6.35,23.48-5.84,31.15-13.81,8.89-9.25,17.28-18.93,25.2-29.02,1.67-2.13,5.4-.2,3.64,2.16ZM1052.32,530.3c2.32,1.09,4.68,1.99,7.15,2.46,5.92,1.12,15.28-.46,18.45-6.39,1.98-3.71-1.6-5.35-4.8-5.54-4.2-.26-9.14,1.42-12.83,3.45-2.87,1.58-5.62,3.62-7.97,6.02Z"></path><path class="g" d="M1192.6,579.87c-6.37,10.5-13.77,20.51-19.34,31.45-3.59,7.05-12.66,19.5-21.49,10.48-6.94-7.09-6.38-19.26-6.82-28.44-.05-1.05-.09-2.1-.14-3.15-1.26,4.24-2.54,8.47-3.81,12.71-2.21,7.37-3.28,14.83-10.79,18.81-8.3,4.4-15.56-1.46-18.44-9.24-3.16-8.58-3.46-18.51-2.82-27.51.84-11.73,3.8-35.22,19.76-35.86,9.26-.37,14.09,6.19,16.18,13.94.03-.48.05-.96.08-1.44,1.18-19.25,5.25-40.41,17.2-56.17,4.27-5.63,11.45-8.36,17.1-2.75,5.93,5.88,3.46,16.2,2.03,23.4-3.38,17.04-11.98,32.62-23.2,45.75,0,.77.02,1.54.03,2.31.2,9.58.21,19.4,1.17,28.93.19,1.84.47,3.66.9,5.46.58,2.33,1.35,4.61,2.32,6.82,1.34-.6,2.46-1.48,3.37-2.63,2.76-3,5.41-6.44,7.73-9.78,5.6-8.08,10.59-16.73,15.56-25.21,1.31-2.23,4.83-.23,3.4,2.13ZM1144.56,580.9c-.03-2.33-.04-4.66-.01-6.99-.61-3.46-1.27-6.95-2.73-10.08-2.3-4.93-8.4-10.8-14.26-7.32-3.65,2.16-4.43,7.64-4.83,11.47-.95,8.9-.78,17.72-.26,26.67.25,4.19.2,10.21,2.5,13.96.48.78,1.19,1.52,1.87,2.12,2.06,1.79,3.46,3.33,5.53,1.18,1.23-1.28,2.16-2.93,2.98-4.5,4.21-8.06,6.64-17.58,9.22-26.5ZM1158.13,564.94c8.89-12.32,14.39-26.81,16.5-41.95.51-3.68,2.16-10.64-.51-13.76-4.77-5.59-9.26,11.43-10,13.78-2.46,7.73-3.77,16.01-4.79,24.05-.75,5.93-1.1,11.91-1.2,17.88Z"></path><path class="g" d="M1230.49,579.97c-7.4,8.71-12.47,19.78-17.66,29.9-3.14,6.11-12.98,15.08-20.05,8.77-7.29-6.51-5.91-19.26-5.71-28.01.13-5.66.32-11.4,1.41-16.97.61-3.15,1.33-6.26,2.12-9.37.19-.77.35-1.57.59-2.33.52-1.6,6.61-8.13,6.53-8.27-.19-.31,3.44.64,3.86,1.03,1.94,1.81,1.95,4.37,1.98,6.88.05,4.86-.86,9.78-1.14,14.64-.36,6.46-.94,12.9-.9,19.38.02,3.51-.83,11.22,1.61,14.75,5.77-2.44,9.47-12.45,12.31-17.29,3.38-5.75,6.78-11.42,11.26-16.41,2.29-2.55,6.08.61,3.81,3.3ZM1194.59,537.04c-.04-4.26,1.28-8.97,3.55-12.52,2.42-3.77,9.08-1.81,8.89,2.71-.12,2.87-.43,5.69-.47,8.56-.04,3.78-2.81,9.68-7.29,8.38-2.83-.82-4.66-4.29-4.69-7.13Z"></path><path class="g" d="M1280.63,579.5c-4.18,7.93-8.13,15.85-11.94,23.96-2.67,5.65-6.35,10.73-10.74,15.18-4.24,4.3-8.75,7.43-15.03,7.05-7.78-.46-12.31-7.59-13.85-14.64-1.69-7.78-1.6-16.06-1.63-23.97-.03-8.72.14-17.45.46-26.17.29-7.85.71-15.67,1.51-23.43-7.28-.23-14.52.34-21.53,2.95-1.9.71-3.62-1.74-1.77-2.96,7.37-4.9,15.58-6.33,24.07-6.5,1.14-8.51,2.83-16.93,5.42-25.23,1.21-3.85,7.35-4.16,7.37.45.03,8.39-.14,16.77-.38,25.15,5.01.29,10.03.62,15.05.44,3.21-.11,6.45-.39,9.6-1.01,2.53-.5,4.78-1.51,7.38-1.24,2.95.31,4.59,3.81,2.07,5.97-7.79,6.67-22.39,4.33-31.79,3.29-.84-.09-1.68-.18-2.52-.28-.48,15.65-1.02,31.3-.63,47,.15,6.25,0,12.54.63,18.77.33,3.26.78,8.5,3.58,10.5.59,1.43,1.5,1.75,2.72.96,1.33-.22,2.52-.79,3.55-1.69,1.21-.79,2.4-1.65,3.53-2.55,10.25-8.13,15.16-21.71,20.71-33.17,1.17-2.41,5.5-1.34,4.17,1.17Z"></path><path class="g" d="M1318.38,580.11c-7.4,8.71-12.47,19.78-17.66,29.9-3.14,6.11-12.98,15.08-20.05,8.77-7.29-6.51-5.91-19.26-5.71-28.01.13-5.66.32-11.4,1.41-16.97.61-3.15,1.33-6.26,2.12-9.37.19-.77.35-1.57.59-2.33.52-1.6,6.61-8.13,6.53-8.27-.19-.31,3.44.64,3.86,1.03,1.94,1.81,1.95,4.37,1.98,6.88.05,4.86-.86,9.78-1.14,14.64-.36,6.46-.94,12.9-.9,19.38.02,3.51-.83,11.22,1.61,14.76,5.77-2.44,9.47-12.45,12.31-17.29,3.38-5.75,6.78-11.42,11.26-16.4,2.29-2.55,6.08.61,3.81,3.3ZM1282.48,537.18c-.04-4.25,1.28-8.97,3.55-12.52,2.42-3.77,9.08-1.81,8.89,2.71-.12,2.87-.43,5.68-.47,8.56-.04,3.78-2.81,9.68-7.29,8.38-2.83-.82-4.66-4.29-4.69-7.13Z"></path><path class="g" d="M1382.17,578.81c-4.5,7.93-10.47,16.81-20.66,16.81-1.91,0-3.75-.32-5.5-.89-2.11,7.52-5.36,15.31-10.46,20.89-5.82,6.38-15.31,9.29-22.37,3.15-7.22-6.28-9.59-16.51-10.17-25.65-.65-10.26,1.27-20.82,6.8-29.59,2.63-4.18,5.58-7.56,10.33-9.29,3.01-1.09,7.41-2.01,8.94,1.62.41.98-.54,2.21-.95,2.98-1.39,2.61-2.54,5.4-4.03,7.95-1.84,3.13-3.57,5.83-4.67,9.37-1.91,6.14-2.66,12.4-2,18.81.51,4.96,2.89,19.38,10.64,16.35,6.26-2.44,10.57-13.07,12.35-18.98.04-.13.07-.27.11-.41-3.72-2.67-6.64-6.55-8.27-10.82-1.75-4.58-2.29-9.56-2.08-14.43.13-3.03.03-7.37,1.94-9.91,4.49-6,12.14-.21,14.38,4.71,3.78,8.28,2.76,19.3.86,27.92.85.31,1.74.55,2.69.7,8.63,1.33,13.42-7,16.99-13.41,1.75-3.13,7.06-1.24,5.16,2.11ZM1352.55,569.44c-.24-1.75-2.44-11.94-6.29-8.41-.73.67-.57,5.02-.61,5.99-.07,1.67-.05,3.36.11,5.02.47,5.11,2.54,10.41,6.2,13.98,1.03-5.47,1.34-11.15.6-16.58Z"></path><path class="g" d="M1461.48,580.58c.11,2.95-1.42,5.21-2.79,7.75-2.04,3.8-4.18,7.55-6.16,11.39-2.88,5.6-5.52,12.06-10.63,16.04-4.62,3.6-10.77,4.58-15.66.74-6.62-5.19-5.96-14.67-5.52-22.12.54-9.12.7-18.23,1.3-27.35.19-2.87.45-9.2-4.37-6.84-1.46.71-2.73,1.79-3.87,2.93-2.63,2.61-4.5,6.06-6.29,9.27-4.02,7.21-7.58,14.69-10.53,22.4-1.46,3.81-2.64,7.64-3.59,11.6.41,5.1,1.23,10.38.52,15.42-.11-.13-.21-.26-.32-.39.11,8.33-10.88,11.91-13.44,2.68-2.75-9.93-2.33-21.18-2.76-31.47-.41-9.66-.66-19.32-.79-28.98-.05-4.04,2.05-8.39,6.6-8.78,4.05-.35,8.07,3.23,8.16,7.35.23,9.79.59,19.58,1.12,29.35.02.37.05.73.07,1.1.08-.19.15-.39.22-.58,2.67-6.67,5.76-13.19,9.19-19.5,4.71-8.65,12.37-21.24,24.32-17.62,6.24,1.89,6.16,9.83,6.86,15.07,1.28,9.63.78,19.23.69,28.91-.02,1.98-.18,6.51,2.24,7.58,3.34,1.47,7.12-4.98,8.72-6.95,2.86-3.54,5.55-7.16,8.08-10.94,2.16-3.24,3.87-6.84,7.28-8.88.64-.38,1.33.17,1.36.82Z"></path><g id="d"><path class="k" d="M646.88,19.4c-6.4,42.13,16.95,95.25,52.5,120.93,6.81,4.9,18.38,11.8,4.46,15.81-55.17,18.45-113.79-72.96-108.89,35.33-1.03,34.02,26.54,78.74,59.85,86.31,35.24-42.65,33.84-75.72,101.24-48.8,122.84,24.75,76.46-114.96,152.11-120.31,8.11-5.86-8.93-16.05-12.44-22-31.56-36.88-57.22,18.52-88.74,20-31.34-1.64-32.56-40.48-56.6-53.36-32.04-13.71-70.24-26.02-103.5-33.92ZM607.14,156.17c-.02.78-1.02.95-1.02.06-.04-.95,1.08-1.04,1.02-.06Z"></path><path class="k" d="M1279.87,14.17c-33.01,8.95-71.11,20.14-102.94,34.14-24.06,12.9-25.35,51.93-56.79,53.37-42.95-10.96-66.22-64.73-103.52-1.5,82.04,16.35,28.07,143.89,154.66,123.8,64.83-27.15,67.43,6.74,101.22,48.82,33.4-7.53,60.81-52.35,59.87-86.32,4.79-108.38-53.64-16.84-108.89-35.33-13.94-4.03-2.32-10.92,4.45-15.82,35.11-25.52,60.14-79.79,51.94-121.16ZM1320.63,150.43c.62-.05.88,1.45.06,1.38-.58-.15-.7-1.26-.06-1.38Z"></path><path class="e" d="M646.88,5.23c-6.4,42.13,16.95,95.25,52.5,120.93,6.81,4.9,18.38,11.8,4.46,15.81-55.17,18.45-113.79-72.96-108.89,35.33-1.03,34.02,26.54,78.74,59.85,86.31,35.24-42.65,33.84-75.72,101.24-48.8,122.84,24.75,76.46-114.96,152.11-120.31,8.11-5.86-8.93-16.05-12.44-22-31.56-36.88-57.22,18.52-88.74,20-31.34-1.64-32.56-40.48-56.6-53.36-32.04-13.71-70.24-26.02-103.5-33.92ZM607.14,141.99c-.02.78-1.02.95-1.02.06-.04-.95,1.08-1.04,1.02-.06Z"></path><path class="e" d="M1279.87,0c-33.01,8.95-71.11,20.14-102.94,34.14-24.06,12.9-25.35,51.93-56.79,53.37-42.95-10.96-66.22-64.73-103.52-1.5,82.04,16.35,28.07,143.89,154.66,123.8,64.83-27.15,67.43,6.74,101.22,48.82,33.4-7.53,60.81-52.35,59.87-86.32,4.79-108.38-53.64-16.84-108.89-35.33-13.94-4.03-2.32-10.92,4.45-15.82,35.11-25.52,60.14-79.79,51.94-121.16ZM1320.63,136.25c.62-.05.88,1.45.06,1.38-.58-.15-.7-1.26-.06-1.38Z"></path></g><path class="f" d="M125.12,577.6c-10.85,4.62-26.67,6.34-34.38-3.76-10.08-13.2-17.58-30.13-25.05-45.61-10.4-21.55-20.28-43.73-29.44-65.85-10.07-24.32-20.66-49.26-26.79-75.07-1.17-4.57-1.27-9.06-.29-13.46,6.31-9.02,17.32-14.34,27.22-18.16,6.71-2.6,13.65-4.39,20.69-5.18,7.04-.79,13.34.05,18.87,2.5,5.53,2.45,9.88,7.13,12.51,13.77,1.49,3.77,2.75,8.44,3.92,13.69.88,3.97,1.83,7.56,2.84,10.78,6.98-20.35,14.38-43.82,29.89-59.65,1.68-1.51,3.59-2.65,5.74-3.4,6.08-2.13,13.13-1.71,21.07,1.27,7.94,2.98,15.27,7.5,21.96,13.52,6.69,6.02,11.18,12.62,13.53,19.75,1.77,5.37,1.77,10.7.03,15.97-4.76,11.69-10.75,22.88-17.91,33.28-2.2,3.52-3.3,5.28-5.48,8.81,14.49,5.3,27.62,13.35,40.2,21.78,12.98,8.7,25.84,18.79,36.72,30.36,1.7,1.85,2.94,3.97,3.7,6.35,1.56,4.87,1.52,10.48-.08,16.83-1.61,6.35-4.12,12.57-7.52,18.68-3.4,6.11-7.15,11.43-11.25,15.97-4.1,4.54-7.92,7.43-11.5,8.67-2.68.92-4.98.66-6.9-.8-1.92-1.46-3.84-2.95-5.74-4.48-22.34-18.13-45.14-35.57-69.26-51.28,1.7,4.24,2.55,6.36,4.25,10.6,3.45,8.23,6.76,16.58,9.91,25.03,3,8.05,5.73,15.9,7.7,23.25,1.36,5.09.59,10.11-2.1,14.73-2.69,4.62-6.47,8.73-11.35,12.36-4.88,3.63-10.33,6.46-15.73,8.75Z"></path><path class="f" d="M299.74,517.18c-5.49,1.65-10.83,2.97-15.78,4.13-3.79.89-7.07.63-9.73-.99-2.66-1.61-5.3-4.69-7.91-9.23-6.68-11.74-11.96-24.26-16.83-36.68-6.33-16.14-12.14-32.92-17.44-49.49-5.69-17.79-11.07-36.01-15.55-54.2-3.43-13.95-6.63-28.21-8.75-42.32-.86-5.69-1.15-11.81-.63-18.19.52-6.37,3.14-11.46,7.65-14.26,7.56-4.69,16.17-8.01,24.16-10.39,5.72-1.7,11.19-3.18,16.13-4.05,4.87-.86,10.16.92,15.46,5.07,5.29,4.15,9.97,8.48,14.05,12.99,1.05,1.06,1.58,1.59,2.63,2.65,10.78,11.14,21.42,22.44,31.77,33.92,11.41,12.66,22.88,25.39,34.42,38-6.11-16.52-11.67-33.26-16.08-50.1-3.24-12.36-5.65-25.64-8.63-37.71-2.43-9.84.29-21.34,10.48-25.58,8.43-3.51,17.36-6.84,26.35-9,7.89-1.89,15.62-3.25,22.82-3.69,4.7-.28,8.8,1.73,12.03,5.79,3.23,4.07,5.59,8.61,7.09,13.62,5.66,18.82,10.45,37.96,14.74,57.05,6.47,28.75,12.19,58,17.79,86.96,3.35,17.3,6.76,34.86,10.46,51.99.77,3.58.45,6.78-1.08,9.52-1.52,2.74-3.65,4.42-6.39,5.05-5,1.28-7.5,1.93-12.5,3.24-6.15,1.78-12.34,3.39-18.41,4.92-9.13,2.31-19.16,4.67-28.51,2.12-14.22-8.67-25.95-21.31-36.84-33.46-12.1-13.5-24.11-27.56-35.68-41.76-1.08-1.26-1.61-1.88-2.69-3.14,1.63,6.43,3.46,13.12,5.38,20.01,4.99,17.88,9.53,36.01,13.31,54.22,2.39,11.51,1.14,19.39-3.55,22.74-5.43,3.87-13.67,7.2-23.74,10.23Z"></path><path class="f" d="M625.58,444.96c-8.23,1.18-14.06-.81-17.51-6.01-8.84-13.8-16.04-28.57-23.14-43.31-6.05.82-9.08,1.24-15.13,2.11-12.28,2.32-23.99,5.1-36,8.55-.43,3.19-.64,4.79-1.06,7.99-.88,7.24-1.96,14.6-3.24,22.08-1.27,7.48-3.06,14.32-5.35,20.51-1.65,3.63-4.81,5.9-9.48,6.81-4.59.89-10.04.61-16.37-.82-6.33-1.44-12.64-3.69-18.92-6.76-6.29-3.07-11.78-6.75-16.47-11.08-4.69-4.33-7.6-8.97-8.69-13.97-.4-1.81-.53-3.61-.39-5.43,2.8-30.63,6.78-61.29,11.51-91.5,4.62-29.5,10.38-59.28,20.09-87.77,3.32-8.04,9.38-14.39,17.83-19.06,8.24-4.56,18.86-7.99,28.04-9.53,8.98-1.5,19.61-2.04,28.77-.87,9.08,1.16,16.04,4.53,20.66,10.22,11.16,15.72,20.54,32.76,29.53,49.65,12.17,22.85,23.76,46.45,34.52,70.02,8.38,18.34,16.58,37.04,23.25,56.2.29.95.49,1.91.61,2.88.67,5.51-1.32,11.08-5.91,16.75-4.59,5.67-10.34,10.57-17.24,14.73-6.91,4.16-13.53,6.7-19.91,7.61ZM539.33,353.78c7.11-1.68,14.21-3.11,21.32-4.29-4.09-11.12-7.47-19.54-10.12-25.27-2.65-5.73-4.78-8.46-6.38-8.19-1.51.26-2.66,3.47-3.36,9.6-1.07,9.31-1.19,18.77-1.45,28.15Z"></path><path class="f" d="M746.52,431.71c-11,.99-22.12,1.88-33.19,2.66-2.07.21-3.11.32-5.18.54-8.26.87-15.62-1.69-20.96-7.64-8.77-9.77-11.4-25.31-13.52-38.26-4.46-27.28-8.31-54.91-11.62-82.41-2.04-16.92-3.82-33.97-5.22-50.96-.88-10.66-2-21.69-1.56-32.18.27-6.59,2.49-12.01,6.2-15.83,3.71-3.82,8.33-6.58,13.86-8.27,5.53-1.69,11.16-2.77,16.7-3.39,8.89-.99,20.03-.6,28.17,2.06,10.28,3.36,13.8,17.25,14.31,27.41.5,5.26.75,7.89,1.25,13.15,1.06,13.54,1.93,27.06,2.63,40.63.7,13.51,1.56,27,2.64,40.46.84,10.48,2.08,21.03,3.61,31.46,5.76-.6,11.5-1.21,17.15-1.89,7.22-.86,14.27-1.56,21.1-2.03,5.43-.37,10.13.25,14.1,1.86,3.96,1.61,7.28,6.44,10.05,14.27,3.04,8.61,4.93,17.75,5.47,27.3.32,5.65,0,11-.95,16.07-.95,5.07-2.79,9.31-5.52,12.74-2.73,3.43-6.68,5.79-11.51,6.61-15.46,2.61-32.01,4.19-48,5.63Z"></path><path class="f" d="M890.27,423.84c-11.03.27-22.17.44-33.26.5-2.08.08-3.12.12-5.2.2-8.29.33-15.46-2.7-20.4-8.98-8.11-10.32-9.72-26-11-39.06-2.68-27.51-4.73-55.33-6.25-82.99-.94-17.01-1.61-34.15-1.91-51.2-.19-10.7-.59-21.78.52-32.21.7-6.56,3.25-11.82,7.2-15.39,3.94-3.57,8.73-6.03,14.35-7.35,5.62-1.33,11.3-2.04,16.87-2.3,8.93-.41,20.01.7,27.95,3.89,10.03,4.02,12.64,18.11,12.49,28.28.16,5.28.24,7.92.4,13.21.18,13.58.17,27.13,0,40.71-.18,13.53-.2,27.04.01,40.55.16,10.52.71,21.12,1.57,31.62,5.78-.22,11.54-.46,17.22-.77,7.25-.39,14.34-.63,21.18-.66,5.44-.02,10.09.91,13.94,2.77,3.85,1.86,6.85,6.9,9.1,14.89,2.47,8.78,3.77,18.03,3.68,27.6-.05,5.66-.72,10.98-1.99,15.97-1.28,4.99-3.39,9.11-6.34,12.36-2.95,3.25-7.03,5.35-11.91,5.85-15.59,1.6-32.19,2.11-48.23,2.51Z"></path><path class="f" d="M1047.14,425.4c-13.73-.66-27.85-3.92-40.43-11.63-11.39-6.97-21.16-16.43-28.61-27.52-7.83-11.64-13.59-24.64-17.27-38.16-3.84-14.1-6.03-28.99-5.68-43.36.36-14.84,2.23-29.65,6.63-44.16,4.21-13.88,10.8-27.06,19.67-38.57,8.74-11.34,20.09-20.54,32.95-26.79,14.69-7.14,30.63-9.2,45.84-8.46,15.19.73,30.9,4.24,44.9,12.59,12.07,7.2,22.46,17.13,30.06,28.98,7.66,11.95,12.9,25.35,15.72,39.24,2.91,14.32,3.88,29.34,2.31,43.62-1.64,14.94-5.07,29.43-10.26,43.55-4.9,13.34-12.48,26.15-21.67,37.29-8.76,10.62-19.71,19.38-32.08,25.44-13.5,6.61-28.1,8.61-42.09,7.94ZM1052.99,345.49c7.27.36,14.11-2.79,20.25-9.45,7.46-8.09,10.39-19.67,11.09-30.47.59-9.09-.27-16.66-2.53-22.63-2.26-5.96-5.4-10.46-9.41-13.46-4.01-3-8.38-4.62-13.1-4.86-7.71-.39-14.95,2.69-21.44,9.22-7.38,7.43-10.58,18.16-11.03,28.38-.42,9.39.72,17.36,3.17,23.71,2.45,6.35,5.74,11.14,9.86,14.37,4.12,3.23,8.5,4.95,13.14,5.18Z"></path><path class="f" d="M1221.06,352.73c-13.64-1.68-27.58-3.26-40.9-5.31-6.16-.95-10.55-4.5-12.87-10.24-2.32-5.75-3.17-11.97-2.52-18.69.59-6.06,2.17-11.54,4.77-16.42,2.6-4.88,6.09-8.06,9.89-8.68,12.8-2.11,28.01.61,41.56,2.15,20.51,2.33,41.47,5.61,61.42,9.66,7.23,1.47,12.3,5.66,14.87,12.05,2.57,6.39,3.29,13.03,2.22,19.91-1.02,6.56-3.34,12.25-6.9,17.09-3.57,4.84-7.88,6.87-12.93,6.13-11.14-1.64-22.35-3.22-33.55-4.58-8.31-1.01-16.67-2.02-25.07-3.05Z"></path><path class="f" d="M1386.49,465.54c-14.42-2.89-28.94-8.65-41.22-18.59-11.03-8.92-20.16-20.12-26.68-32.73-6.68-12.94-11.36-27.23-13.09-41.44-1.82-14.9-2.01-30.06.3-44.56,2.93-18.41,9.87-35.55,19.82-51.84,9.51-15.56,25.08-28.1,41.65-35.76,20.4-9.44,43.86-8.97,64.98-5.18,13.82,2.48,27.82,7.92,40.6,14.26,9.93,4.93,20.28,12.1,24.87,22.68,1.33,4.56,1.38,9.38.18,14.46-1.48,6.25-4.27,12.49-8.34,18.73-4.07,6.25-8.48,11.89-13.21,16.94-4.73,5.05-9.03,8.97-12.93,11.77-2.49,1.55-4.98,2.05-7.45,1.5-1.95-.44-3.88-1.34-5.81-2.71-1.92-1.37-3.7-2.79-5.34-4.26-8.55-6.28-17.26-12.99-27.9-15.07-7.02-1.37-13.22-.9-18.42,1.29-5.2,2.19-9.36,5.57-12.49,10.12-3.13,4.55-5.22,9.61-6.28,15.16-1.61,8.44-.64,16.62,2.84,24.55,3.48,7.93,9.87,13.27,18.72,15.29,3.87.88,8.04,1.09,12.16.85,4.12-.25,8.26-.62,12.4-1.12,4.14-.5,8.28-.82,12.41-.97,4.13-.15,8.36.13,12.18,1.13,4.5,1.18,7.88,5.59,9.76,12.6,1.88,7.02,2.64,15.21,2.28,24.57-.35,9.36-1.43,17.79-3.2,25.31-.8,3.39-1.69,6.2-2.65,8.43-4.36,8.89-13.58,13.65-23.01,14.77-16.01,1.89-31.96,2.88-47.13-.16Z"></path><path class="f" d="M1543.66,506.5c-28.2-7.62-48-29.73-54.76-57.97-8.15-34.05-2.25-70.99,5.66-103.94,6.14-25.6,14.8-50.93,24.52-75.81,1.98-3.77,7.4-6.15,16.27-7.07,8.87-.92,18.09-.14,27.6,2.35,8.86,2.32,16.17,6.06,21.87,11.16,5.7,5.1,7.92,12.01,6.07,19.69-.88,3.68-3.5,10.48-7.14,20.03-7.53,19.74-14.88,39.87-20.49,60.35-2.59,9.43-4.49,18.28-5.69,26.52-1.21,8.24-1.26,15.14-.18,20.69,1.08,5.55,4.06,9.37,8.11,10.16,15.41,2.99,24.82-36.93,27.96-47.48,6.29-21.09,11.02-43.22,15.43-64.83,2.36-11.58,3.99-19.94,5.37-24.26,1.78-5.53,7.39-8.92,16.04-9.87,10.27-1.12,20.5,1.15,30.07,3.81,9.34,2.6,17.68,7.18,24.46,12.77,6.77,5.58,9.6,12.13,8.07,18.87-3.89,17.11-9.21,35.02-14.87,52.12-7.77,23.47-16.25,47.25-27.96,68.88-7.94,14.66-16.72,29.14-28.19,41.52-7.78,8.39-16.96,16.04-27.48,20.67-8.93,3.93-17.72,5.71-26.24,5.41-8.52-.3-16.74-1.66-24.48-3.75Z"></path><path class="f" d="M1677.08,548.8c-8.91-3.14-16.09-7.02-21.58-11.69-5.49-4.68-7.62-9.71-6.35-15.14,10.41-35.9,21.43-71.69,33.22-107.07,7.52-22.55,15.21-45.62,23.65-67.44,3.57-9.21,11.77-16.18,21.39-18.7,9.66-2.53,21.94-3.1,31.86-1.46,10.51,1.73,19.6,3.76,26.49,6.42,25.54,9.86,50.44,24.84,62.83,51.05,4.51,8.92,7.19,20.99,7.27,30.79.08,9.42-2.06,21.02-5.65,29.79-3.34,8.14-9.32,17.15-15.36,23.48-6.14,6.43-15.2,12.8-23.28,16.49-8.53,3.89-20.06,6.35-29.41,6.56-11.6.27-23.2-2.58-33.93-6.27-2.55-.88-5.23-2.07-7.91-3.3-5.08,14.53-10.12,29.07-15.42,43.52-3,7.8-4.5,11.69-7.5,19.49-2.61,5.53-7.92,8.19-15.93,8.05-8.01-.14-16.12-1.67-24.38-4.58ZM1753.46,438.99c7.79,1.48,14.34.61,19.68-2.67,5.34-3.27,9.01-7.49,10.98-12.67,1.89-4.98,1.95-10.05.14-15.21-1.81-5.16-5.94-8.95-12.37-11.34-1.12-.35-1.68-.52-2.8-.86-1.49,3.51-3.05,7.46-4.67,11.84-2.03,5.51-4.04,11.2-6.01,17.08-1.98,5.53-2.97,8.29-4.96,13.82Z"></path><path class="n" d="M116.62,569.09c-10.85,4.62-26.67,6.34-34.38-3.76-10.08-13.2-17.58-30.13-25.05-45.61-10.4-21.55-20.28-43.73-29.44-65.85-10.07-24.32-20.66-49.26-26.79-75.07-1.17-4.57-1.27-9.06-.29-13.46,6.31-9.02,17.32-14.34,27.22-18.16,6.71-2.6,13.65-4.39,20.69-5.18,7.04-.79,13.34.05,18.87,2.5,5.53,2.45,9.88,7.13,12.51,13.77,1.49,3.77,2.75,8.44,3.92,13.69.88,3.97,1.83,7.56,2.84,10.78,6.98-20.35,14.38-43.82,29.89-59.65,1.68-1.51,3.59-2.65,5.74-3.4,6.08-2.13,13.13-1.71,21.07,1.27,7.94,2.98,15.27,7.5,21.96,13.52,6.69,6.02,11.18,12.62,13.53,19.75,1.77,5.37,1.77,10.7.03,15.97-4.76,11.69-10.75,22.88-17.91,33.28-2.2,3.52-3.3,5.28-5.48,8.81,14.49,5.3,27.62,13.35,40.2,21.78,12.98,8.7,25.84,18.79,36.72,30.36,1.7,1.85,2.94,3.97,3.7,6.35,1.56,4.87,1.52,10.48-.08,16.83-1.61,6.35-4.12,12.57-7.52,18.68-3.4,6.11-7.15,11.43-11.25,15.97-4.1,4.54-7.92,7.43-11.5,8.67-2.68.92-4.98.66-6.9-.8-1.92-1.46-3.84-2.95-5.74-4.48-22.34-18.13-45.14-35.57-69.26-51.28,1.7,4.24,2.55,6.36,4.25,10.6,3.45,8.23,6.76,16.58,9.91,25.03,3,8.05,5.73,15.9,7.7,23.25,1.36,5.09.59,10.11-2.1,14.73-2.69,4.62-6.47,8.73-11.35,12.36-4.88,3.63-10.33,6.46-15.73,8.75Z"></path><path class="n" d="M291.23,508.68c-5.49,1.65-10.83,2.97-15.78,4.13-3.79.89-7.07.63-9.73-.99-2.66-1.61-5.3-4.69-7.91-9.23-6.68-11.74-11.96-24.26-16.83-36.68-6.33-16.14-12.14-32.92-17.44-49.49-5.69-17.79-11.07-36.01-15.55-54.2-3.43-13.95-6.63-28.21-8.75-42.32-.86-5.69-1.15-11.81-.63-18.19.52-6.37,3.14-11.46,7.65-14.26,7.56-4.69,16.17-8.01,24.16-10.39,5.72-1.7,11.19-3.18,16.13-4.05,4.87-.86,10.16.92,15.46,5.07,5.29,4.15,9.97,8.48,14.05,12.99,1.05,1.06,1.58,1.59,2.63,2.65,10.78,11.14,21.42,22.44,31.77,33.92,11.41,12.66,22.88,25.39,34.42,38-6.11-16.52-11.67-33.26-16.08-50.1-3.24-12.36-5.65-25.64-8.63-37.71-2.43-9.84.29-21.34,10.48-25.58,8.43-3.51,17.36-6.84,26.35-9,7.89-1.89,15.62-3.25,22.82-3.69,4.7-.28,8.8,1.73,12.03,5.79,3.23,4.07,5.59,8.61,7.09,13.62,5.66,18.82,10.45,37.96,14.74,57.05,6.47,28.75,12.19,58,17.79,86.96,3.35,17.3,6.76,34.86,10.46,51.99.77,3.58.45,6.78-1.08,9.52-1.52,2.74-3.65,4.42-6.39,5.05-5,1.28-7.5,1.93-12.5,3.24-6.15,1.78-12.34,3.39-18.41,4.92-9.13,2.31-19.16,4.67-28.51,2.12-14.22-8.67-25.95-21.31-36.84-33.46-12.1-13.5-24.11-27.56-35.68-41.76-1.08-1.26-1.61-1.88-2.69-3.14,1.63,6.43,3.46,13.12,5.38,20.01,4.99,17.88,9.53,36.01,13.31,54.22,2.39,11.51,1.14,19.39-3.55,22.74-5.43,3.87-13.67,7.2-23.74,10.23Z"></path><path class="n" d="M617.08,436.46c-8.23,1.18-14.06-.81-17.51-6.01-8.84-13.8-16.04-28.57-23.14-43.31-6.05.82-9.08,1.24-15.13,2.11-12.28,2.32-23.99,5.1-36,8.55-.43,3.19-.64,4.79-1.06,7.99-.88,7.24-1.96,14.6-3.24,22.08-1.27,7.48-3.06,14.32-5.35,20.51-1.65,3.63-4.81,5.9-9.48,6.81-4.59.89-10.04.61-16.37-.82-6.33-1.44-12.64-3.69-18.92-6.76-6.29-3.07-11.78-6.75-16.47-11.08-4.69-4.33-7.6-8.97-8.69-13.97-.4-1.81-.53-3.61-.39-5.43,2.8-30.63,6.78-61.29,11.51-91.5,4.62-29.5,10.38-59.28,20.09-87.77,3.32-8.04,9.38-14.39,17.83-19.06,8.24-4.56,18.86-7.99,28.04-9.53,8.98-1.5,19.61-2.04,28.77-.87,9.08,1.16,16.04,4.53,20.66,10.22,11.16,15.72,20.54,32.76,29.53,49.65,12.17,22.85,23.76,46.45,34.52,70.02,8.38,18.34,16.58,37.04,23.25,56.2.29.95.49,1.91.61,2.88.67,5.51-1.32,11.08-5.91,16.75-4.59,5.67-10.34,10.57-17.24,14.73-6.91,4.16-13.53,6.7-19.91,7.61ZM530.82,345.27c7.11-1.68,14.21-3.11,21.32-4.29-4.09-11.12-7.47-19.54-10.12-25.27-2.65-5.73-4.78-8.46-6.38-8.19-1.51.26-2.66,3.47-3.36,9.6-1.07,9.31-1.19,18.77-1.45,28.15Z"></path><path class="n" d="M738.02,423.21c-11,.99-22.12,1.88-33.19,2.66-2.07.21-3.11.32-5.18.54-8.26.87-15.62-1.69-20.96-7.64-8.77-9.77-11.4-25.31-13.52-38.26-4.46-27.28-8.31-54.91-11.62-82.41-2.04-16.92-3.82-33.97-5.22-50.96-.88-10.66-2-21.69-1.56-32.18.27-6.59,2.49-12.01,6.2-15.83,3.71-3.82,8.33-6.58,13.86-8.27,5.53-1.69,11.16-2.77,16.7-3.39,8.89-.99,20.03-.6,28.17,2.06,10.28,3.36,13.8,17.25,14.31,27.41.5,5.26.75,7.89,1.25,13.15,1.06,13.54,1.93,27.06,2.63,40.63.7,13.51,1.56,27,2.64,40.46.84,10.48,2.08,21.03,3.61,31.46,5.76-.6,11.5-1.21,17.15-1.89,7.22-.86,14.27-1.56,21.1-2.03,5.43-.37,10.13.25,14.1,1.86,3.96,1.61,7.28,6.44,10.05,14.27,3.04,8.61,4.93,17.75,5.47,27.3.32,5.65,0,11-.95,16.07-.95,5.07-2.79,9.31-5.52,12.74-2.73,3.43-6.68,5.79-11.51,6.61-15.46,2.61-32.01,4.19-48,5.63Z"></path><path class="n" d="M881.77,415.34c-11.03.27-22.17.44-33.26.5-2.08.08-3.12.12-5.2.2-8.29.33-15.46-2.7-20.4-8.98-8.11-10.32-9.72-26-11-39.06-2.68-27.51-4.73-55.33-6.25-82.99-.94-17.01-1.61-34.15-1.91-51.2-.19-10.7-.59-21.78.52-32.21.7-6.56,3.25-11.82,7.2-15.39,3.94-3.57,8.73-6.03,14.35-7.35,5.62-1.33,11.3-2.04,16.87-2.3,8.93-.41,20.01.7,27.95,3.89,10.03,4.02,12.64,18.11,12.49,28.28.16,5.28.24,7.92.4,13.21.18,13.58.17,27.13,0,40.71-.18,13.53-.2,27.04.01,40.55.16,10.52.71,21.12,1.57,31.62,5.78-.22,11.54-.46,17.22-.77,7.25-.39,14.34-.63,21.18-.66,5.44-.02,10.09.91,13.94,2.77,3.85,1.86,6.85,6.9,9.1,14.89,2.47,8.78,3.77,18.03,3.68,27.6-.05,5.66-.72,10.98-1.99,15.97-1.28,4.99-3.39,9.11-6.34,12.36-2.95,3.25-7.03,5.35-11.91,5.85-15.59,1.6-32.19,2.11-48.23,2.51Z"></path><path class="n" d="M1038.64,416.9c-13.73-.66-27.85-3.92-40.43-11.63-11.39-6.97-21.16-16.43-28.61-27.52-7.83-11.64-13.59-24.64-17.27-38.16-3.84-14.1-6.03-28.99-5.68-43.36.36-14.84,2.23-29.65,6.63-44.16,4.21-13.88,10.8-27.06,19.67-38.57,8.74-11.34,20.09-20.54,32.95-26.79,14.69-7.14,30.63-9.2,45.84-8.46,15.19.73,30.9,4.24,44.9,12.59,12.07,7.2,22.46,17.13,30.06,28.98,7.66,11.95,12.9,25.35,15.72,39.24,2.91,14.32,3.88,29.34,2.31,43.62-1.64,14.94-5.07,29.43-10.26,43.55-4.9,13.34-12.48,26.15-21.67,37.29-8.76,10.62-19.71,19.38-32.08,25.44-13.5,6.61-28.1,8.61-42.09,7.94ZM1044.48,336.99c7.27.36,14.11-2.79,20.25-9.45,7.46-8.09,10.39-19.67,11.09-30.47.59-9.09-.27-16.66-2.53-22.63-2.26-5.96-5.4-10.46-9.41-13.46-4.01-3-8.38-4.62-13.1-4.86-7.71-.39-14.95,2.69-21.44,9.22-7.38,7.43-10.58,18.16-11.03,28.38-.42,9.39.72,17.36,3.17,23.71,2.45,6.35,5.74,11.14,9.86,14.37,4.12,3.23,8.5,4.95,13.14,5.18Z"></path><path class="n" d="M1212.56,344.23c-13.64-1.68-27.58-3.26-40.9-5.31-6.16-.95-10.55-4.5-12.87-10.24-2.32-5.75-3.17-11.97-2.52-18.69.59-6.06,2.17-11.54,4.77-16.42,2.6-4.88,6.09-8.06,9.89-8.68,12.8-2.11,28.01.61,41.56,2.15,20.51,2.33,41.47,5.61,61.42,9.66,7.23,1.47,12.3,5.66,14.87,12.05,2.57,6.39,3.29,13.03,2.22,19.91-1.02,6.56-3.34,12.25-6.9,17.09-3.57,4.84-7.88,6.87-12.93,6.13-11.14-1.64-22.35-3.22-33.55-4.58-8.31-1.01-16.67-2.02-25.07-3.05Z"></path><path class="n" d="M1377.98,457.03c-14.42-2.89-28.94-8.65-41.22-18.59-11.03-8.92-20.16-20.12-26.68-32.73-6.68-12.94-11.36-27.23-13.09-41.44-1.82-14.9-2.01-30.06.3-44.56,2.93-18.41,9.87-35.55,19.82-51.84,9.51-15.56,25.08-28.1,41.65-35.76,20.4-9.44,43.86-8.97,64.98-5.18,13.82,2.48,27.82,7.92,40.6,14.26,9.93,4.93,20.28,12.1,24.87,22.68,1.33,4.56,1.38,9.38.18,14.46-1.48,6.25-4.27,12.49-8.34,18.73-4.07,6.25-8.48,11.89-13.21,16.94-4.73,5.05-9.03,8.97-12.93,11.77-2.49,1.55-4.98,2.05-7.45,1.5-1.95-.44-3.88-1.34-5.81-2.71-1.92-1.37-3.7-2.79-5.34-4.26-8.55-6.28-17.26-12.99-27.9-15.07-7.02-1.37-13.22-.9-18.42,1.29-5.2,2.19-9.36,5.57-12.49,10.12-3.13,4.55-5.22,9.61-6.28,15.16-1.61,8.44-.64,16.62,2.84,24.55,3.48,7.93,9.87,13.27,18.72,15.29,3.87.88,8.04,1.09,12.16.85,4.12-.25,8.26-.62,12.4-1.12,4.14-.5,8.28-.82,12.41-.97,4.13-.15,8.36.13,12.18,1.13,4.5,1.18,7.88,5.59,9.76,12.6,1.88,7.02,2.64,15.21,2.28,24.57-.35,9.36-1.43,17.79-3.2,25.31-.8,3.39-1.69,6.2-2.65,8.43-4.36,8.89-13.58,13.65-23.01,14.77-16.01,1.89-31.96,2.88-47.13-.16Z"></path><path class="n" d="M1535.16,498c-28.2-7.62-48-29.73-54.76-57.97-8.15-34.05-2.25-70.99,5.66-103.94,6.14-25.6,14.8-50.93,24.52-75.81,1.98-3.77,7.4-6.15,16.27-7.07,8.87-.92,18.09-.14,27.6,2.35,8.86,2.32,16.17,6.06,21.87,11.16,5.7,5.1,7.92,12.01,6.07,19.69-.88,3.68-3.5,10.48-7.14,20.03-7.53,19.74-14.88,39.87-20.49,60.35-2.59,9.43-4.49,18.28-5.69,26.52-1.21,8.24-1.26,15.14-.18,20.69,1.08,5.55,4.06,9.37,8.11,10.16,15.41,2.99,24.82-36.93,27.96-47.48,6.29-21.09,11.02-43.22,15.43-64.83,2.36-11.58,3.99-19.94,5.37-24.26,1.78-5.53,7.39-8.92,16.04-9.87,10.27-1.12,20.5,1.15,30.07,3.81,9.34,2.6,17.68,7.18,24.46,12.77,6.77,5.58,9.6,12.13,8.07,18.87-3.89,17.11-9.21,35.02-14.87,52.12-7.77,23.47-16.25,47.25-27.96,68.88-7.94,14.66-16.72,29.14-28.19,41.52-7.78,8.39-16.96,16.04-27.48,20.67-8.93,3.93-17.72,5.71-26.24,5.41-8.52-.3-16.74-1.66-24.48-3.75Z"></path><path class="n" d="M1668.58,540.29c-8.91-3.14-16.09-7.02-21.58-11.69-5.49-4.68-7.62-9.71-6.35-15.14,10.41-35.9,21.43-71.69,33.22-107.07,7.52-22.55,15.21-45.62,23.65-67.44,3.57-9.21,11.77-16.18,21.39-18.7,9.66-2.53,21.94-3.1,31.86-1.46,10.51,1.73,19.6,3.76,26.49,6.42,25.54,9.86,50.44,24.84,62.83,51.05,4.51,8.92,7.19,20.99,7.27,30.79.08,9.42-2.06,21.02-5.65,29.79-3.34,8.14-9.32,17.15-15.36,23.48-6.14,6.43-15.2,12.8-23.28,16.49-8.53,3.89-20.06,6.35-29.41,6.56-11.6.27-23.2-2.58-33.93-6.27-2.55-.88-5.23-2.07-7.91-3.3-5.08,14.53-10.12,29.07-15.42,43.52-3,7.8-4.5,11.69-7.5,19.49-2.61,5.53-7.92,8.19-15.93,8.05-8.01-.14-16.12-1.67-24.38-4.58ZM1744.95,430.48c7.79,1.48,14.34.61,19.68-2.67,5.34-3.27,9.01-7.49,10.98-12.67,1.89-4.98,1.95-10.05.14-15.21-1.81-5.16-5.94-8.95-12.37-11.34-1.12-.35-1.68-.52-2.8-.86-1.49,3.51-3.05,7.46-4.67,11.84-2.03,5.51-4.04,11.2-6.01,17.08-1.98,5.53-2.97,8.29-4.96,13.82Z"></path></g></g></g></svg></svg></g></g></svg>