<?xml version="1.0" encoding="UTF-8"?><svg id="b" xmlns="http://www.w3.org/2000/svg" xmlns:xlink="http://www.w3.org/1999/xlink" viewBox="0 0 1185.49 1038.75"><defs><style>.bg,.bh,.bi,.bj,.bk,.bl,.bm,.bn,.bo,.bp{stroke-miterlimit:10;}.bg,.bq,.bl{fill:#ffecc4;}.bg,.bi,.bj,.bk,.bm,.bo,.bp{stroke-width:5.05px;}.bg,.bl,.bo,.bp{stroke:#343b4b;}.br{fill:#343b4b;}.bs{fill:#f5a47b;}.bh{fill:#e75741;stroke:#c03a31;}.bh,.bl,.bn{stroke-width:6.32px;}.bt,.bo{fill:#425667;}.bu,.bv{fill:#fff;}.bi{stroke:#8d6e58;}.bi,.bw,.bx{fill:none;}.bj{fill:#936037;stroke:#683c11;}.bk,.by{fill:#f6b184;}.bk,.bm{stroke:#77462c;}.bz{clip-path:url(#ak);}.bm{fill:#f7b184;}.bn{stroke:#76462c;}.bn,.ca{fill:#f7b285;}.bp{fill:#84395c;}.cb{fill:#cbbba0;}.cc{fill:#77462c;}.cd{fill:#3d2418;}.bv{opacity:.82;}.ce{fill:#683c11;}.cf{fill:#633623;}.bx{stroke:#3d2418;stroke-linecap:round;stroke-linejoin:round;stroke-width:3.58px;}.cg{fill:url(#v);opacity:.3;}.ch{fill:#843112;}.ci{fill:#76462c;}</style><radialGradient id="v" cx="324.84" cy="-392.41" fx="324.84" fy="-392.41" r="56.92" gradientTransform="translate(-14.52 582.37) rotate(11.71) scale(1.53 1.62) skewX(1.4)" gradientUnits="userSpaceOnUse"><stop offset="0" stop-color="#fffef5"/><stop offset=".55" stop-color="#faccb1" stop-opacity=".42"/><stop offset=".68" stop-color="#f9c1a2" stop-opacity=".28"/></radialGradient><clipPath id="ak"><path class="bw" d="M605.84,365.77c-.67,3.83-.88,3.98-1.44,4.37-.39.28-.89.39-1.36.31q-1.63-.29-3.11-13.04c-.03-.26-.06-.52-.09-.78-.71,4.84-.92,5.17-1.61,5.66-.39.29-.92.41-1.39.32q-1.5-.26-3.7-12.04s0-.02,0-.02c-.11.73-.22,1.46-.33,2.17-2.16,14.34-2.29,14.44-3.18,15.08-.39.28-.91.4-1.39.32q-1.68-.3-2.67-15.25c-.06-.9-.12-1.84-.19-2.81-.12.8-.24,1.58-.35,2.33-2.16,14.38-2.25,14.44-3.13,15.07-.39.28-.91.4-1.38.32-1.74-.31-1.8-1.78-1.99-7.26-.1-2.89-.18-6.59-.24-10.3-2.13,14.42-2.31,14.55-3.2,15.19-.39.28-.92.41-1.4.32q-1.51-.27-3.24-11.63c-.1-.64-.2-1.31-.3-1.99-.08.56-.15,1.1-.22,1.61-1.4,10.15-1.54,10.57-2.43,11.22-.39.29-.92.41-1.4.33-1.73-.3-1.76-.31-2.88-15.55-.34,2.14-.68,4.33-1,6.4-2.9,18.65-2.99,18.72-3.91,19.37-.39.28-.9.4-1.38.31-1.83-.32-1.84-1.9-1.89-7.75-.03-3.32.02-7.67.07-11.98-2.58,17.03-2.7,17.12-3.61,17.77-.39.28-.91.4-1.38.32-1.71-.3-1.78-1.7-2.03-6.91-.15-3.13-.28-7.35-.4-11.44-.02-.68-.04-1.38-.06-2.11-.13.84-.26,1.68-.39,2.49-3.24,20.87-3.41,20.99-4.34,21.66-.39.28-.91.4-1.38.32-1.82-.32-1.8-1.62-1.68-7.89.07-3.66.24-8.45.42-13.53,0-.14.01-.29.02-.43-2.22,14.35-2.36,14.45-3.21,15.06-.39.28-.9.4-1.38.31-1.59-.28-1.68-1.42-1.98-5.67-.17-2.42-.35-5.59-.53-8.95-.03-.5-.06-1.01-.08-1.53-.3,1.92-.59,3.84-.86,5.61-2.61,17.2-2.73,17.28-3.63,17.93-.39.28-.91.4-1.38.32q-1.76-.31-2.77-16.67c-.03-.48-.06-.97-.09-1.48-.13.88-.27,1.75-.39,2.58-2.32,15.28-2.41,15.35-3.3,15.99-.39.28-.91.4-1.38.32-1.64-.29-1.71-1.44-2.01-6.28-.17-2.76-.34-6.48-.51-10.07,0-.11-.01-.22-.01-.34-.11.7-.21,1.39-.31,2.05-2.05,13.73-2.12,13.78-3,14.42-.39.28-.9.4-1.38.32-1.76-.31-1.84-1.64-1.95-7.89-.07-3.66-.06-8.53-.05-13.24,0-.13,0-.26,0-.4-.19,1.2-.37,2.38-.55,3.5-3,19.3-3.1,19.37-4.01,20.02-.39.28-.9.4-1.38.31q-1.73-.31-2.35-16.64v-.06c-1.79,11.71-1.89,11.78-2.71,12.37-.39.28-.9.4-1.38.31q-1.57-.28-3.41-13.07c-.04-.26-.07-.52-.11-.79-1.1,8.15-1.31,8.76-2.17,9.39-.39.29-.94.42-1.42.33q-1.56-.28-3.13-12.18c-.03-.21-.06-.42-.08-.63-.16,1.07-.32,2.14-.47,3.13-1.99,13.1-2.05,13.15-2.91,13.76-.39.28-.9.4-1.38.32-1.53-.27-1.55-.27-3.27-12.25-1.57,10.79-1.71,10.89-2.54,11.5-.39.28-.92.41-1.39.32-.97-.17-1.62-1.1-1.45-2.07.05-.26.15-.5.29-.71.35-1.27,1.09-6.35,1.64-10.12,1.51-10.46,1.6-10.52,2.43-11.13.39-.28.91-.4,1.39-.32q1.49.26,3.12,11.56c.05.36.11.73.16,1.11.13-.85.26-1.69.38-2.51,2.11-13.93,2.2-13.99,3.08-14.63.39-.28.91-.4,1.38-.32q1.57.28,3.16,12.31c1.05-7.79,1.26-8.37,2.1-8.99.39-.29.93-.42,1.41-.33q1.55.27,3.34,12.72c.07.5.15,1.02.22,1.55.14-.93.28-1.85.42-2.74,2.15-14.12,2.24-14.19,3.12-14.82.39-.28.9-.4,1.38-.32q1.75.31,2.39,17.02c.21-1.35.42-2.69.62-3.99,3.28-21.06,3.42-21.17,4.36-21.84.39-.28.91-.4,1.38-.32,1.77.31,1.79,1.65,1.88,7.31.05,3.34.05,7.69.04,12.29,0,.31,0,.62,0,.94,1.76-11.53,2-11.69,2.81-12.28.39-.28.92-.41,1.4-.32,1.63.29,1.7,1.42,2,6.21.17,2.73.34,6.4.5,9.96,0,.05,0,.09,0,.14.02-.16.05-.32.07-.47,2.44-16.12,2.58-16.22,3.47-16.86.39-.28.91-.4,1.38-.32q1.74.31,2.74,16.39c.04.58.07,1.18.11,1.79.19-1.25.38-2.49.56-3.68,2.87-18.89,3.04-19.01,3.98-19.68.39-.28.91-.4,1.39-.32,1.65.29,1.75,1.68,2.09,6.29.19,2.54.37,5.83.55,9.09.18-1.14.35-2.28.52-3.37,2.88-18.72,3.02-18.82,3.94-19.48.39-.28.91-.4,1.38-.32,1.85.33,1.88,1.69,1.76,8.89-.06,3.49-.21,7.92-.37,12.41,2.53-16.26,2.62-16.32,3.49-16.94.39-.28.9-.4,1.37-.31,1.73.3,1.8,1.74,2.06,7.09.16,3.23.29,7.56.41,11.75.01.49.03,1,.05,1.51.1-.63.19-1.26.28-1.87,2.84-18.76,3.01-18.88,3.95-19.56.39-.28.92-.4,1.39-.32,1.79.32,1.8,1.81,1.84,7.35.02,3.35-.03,7.9-.08,12.3,0,.09,0,.17,0,.26,3-19.3,3.12-19.39,4.04-20.04.39-.28.9-.4,1.38-.31q1.62.29,2.6,13.52c.03.47.07.96.11,1.46,1.15-8.14,1.41-8.58,2.22-9.17.39-.29.94-.42,1.42-.33q1.59.28,3.53,13.07c.03.19.06.38.09.58.3-1.96.59-3.98.86-5.8,2.3-15.68,2.47-15.8,3.38-16.46.39-.28.92-.41,1.4-.32,1.67.3,1.71,1.48,1.89,6.46.1,2.86.17,6.6.24,10.56,0,.3.01.6.02.91,1.99-13.13,2.16-13.26,3.01-13.87.39-.28.91-.4,1.39-.32q1.77.31,2.9,17.32c0,.08.01.17.02.25.03-.23.07-.46.1-.69,1.78-11.85,1.81-11.88,2.67-12.49.39-.28.9-.4,1.38-.31q1.42.25,3.35,10.54c.09.51.19,1.04.3,1.58,1-7.08,1.13-7.37,1.91-7.93.39-.29.91-.41,1.39-.32q1.67.3,3.23,13.76c.02.18.04.37.07.56.18-1.12.36-2.25.53-3.32q2.33-14.75,3.22-15.38c.39-.28.89-.39,1.37-.31.97.17,1.62,1.1,1.45,2.07-.04.2-.1.39-.2.56-.36,1.35-1.44,8.13-2.3,13.62-.85,5.36-1.39,8.77-1.78,10.97ZM608.22,342.1h0s0,0,0,0ZM608.07,342.08s.1.01.14.02c-.05,0-.1,0-.14-.02ZM608.07,342.08h0s0,0,0,0ZM608.06,342.08h0s0,0,0,0ZM608.06,342.08h0s0,0,0,0ZM608.05,342.08h0s0,0,0,0ZM476,374.82h0s0,0,0,0ZM476,374.82h0s0,0,0,0ZM558.11,411.67c-.25,1.4-.43,1.66-.94,2.03-.39.28-.9.4-1.37.32q-1.11-.2-3.91-6.74c-.04-.09-.08-.18-.12-.27-.09.63-.18,1.24-.27,1.79q-.98,6.61-1.75,7.17c-.39.28-.89.4-1.37.31-.97-.17-1.62-1.1-1.45-2.07.03-.17.09-.34.16-.49.17-.76.57-3.45.87-5.44,1.18-8,1.24-8.04,2.03-8.61.39-.28.9-.4,1.38-.32q1.1.19,3.81,6.52c.04.1.09.2.13.31.23-1.26.39-1.51.88-1.87.39-.28.89-.4,1.37-.32.97.17,1.62,1.1,1.45,2.07-.02.14-.06.26-.11.39-.09.43-.26,1.61-.38,2.49-.18,1.22-.3,2.09-.41,2.73ZM556.95,407.53c.4.07.76,0,1.07-.14-.32.15-.69.21-1.07.14ZM549.01,412.76h0s0,0,0,0ZM548.33,412.77c.22-.05.45-.05.68-.01-.24-.04-.47-.03-.68.01ZM515.29,434.11c-.71,4.05-.93,4.21-1.48,4.6-.39.28-.89.39-1.37.31-1.76-.31-1.81-1.78-1.98-7.24-.08-2.47-.12-5.53-.17-8.68-.95,5.79-1.12,5.91-1.77,6.38-.39.28-.89.39-1.37.31q-1.43-.25-3.31-9.68c-.09-.48-.2-.98-.3-1.49-.36.2-.78.27-1.19.2-.97-.17-1.62-1.1-1.45-2.07.02-.13.06-.26.11-.38.08-.39.22-1.39.33-2.15.48-3.41.55-3.85,1.28-4.38.39-.28.9-.4,1.37-.32q1.43.25,3.31,9.6c.19-1.22.39-2.44.56-3.56q1.77-11.28,2.59-11.86c.39-.28.89-.39,1.36-.31,1.68.3,1.72,1.57,1.85,6.31.08,2.77.12,6.4.17,10.25,0,.21,0,.41,0,.62,2.17-13.67,2.21-13.7,3.05-14.3.39-.28.89-.39,1.37-.31.97.17,1.62,1.1,1.45,2.07-.04.2-.1.39-.2.56-.37,1.37-1.48,8.38-2.38,14.04-.88,5.6-1.45,9.16-1.86,11.47ZM517.65,409.49c.06.01.11.02.17.02-.05,0-.11-.01-.17-.02ZM517.65,409.49h0s0,0,0,0ZM501.85,415.46c.31-.16.66-.23,1.03-.19h0c-.39-.04-.74.04-1.03.19ZM736.77,385.91c-.92,5.23-1.22,5.45-1.82,5.88-.39.28-.92.4-1.39.32-1.92-.34-1.8-2.4-1.62-5.52.12-2.19.39-5.31.83-9.55.8-7.85,2.01-18.11,3.29-28.96.26-2.18.52-4.42.79-6.68-.53,3.46-1.06,6.95-1.58,10.37-7.8,51.21-9.38,58.83-11.12,60.08-.43.31-.95.43-1.47.34-2.12-.37-2.14-2.79-1.67-8.65.32-3.98.97-9.65,1.98-17.32,1.87-14.19,4.7-33.06,7.44-51.32,2-13.34,4.13-27.49,5.79-39.32-2.68,16.05-5.8,36.79-8.56,55.17-8.84,58.74-10.88,70.1-12.86,71.52-.43.31-.96.43-1.47.34-3.07-.54-3.99-.7,11.95-102.16,4.01-25.53,8.36-53.24,10.76-70.97-3.99,21.42-9.51,58.28-14.24,89.87-11.13,74.3-14.78,96.19-17.5,98.15-.46.33-1,.46-1.53.36-2.11-.37-2.64-2.28-1.61-12.83.03-.34.07-.68.1-1.03-2,10.48-3.16,14.2-4.18,14.93-.44.32-.97.44-1.49.35-2.01-.35-2.48-2.06-1.49-12.05.41-4.1,1.05-9.39,1.97-16.04-5.42,31.83-6.69,32.74-7.72,33.48-.45.32-.99.45-1.52.36-2.07-.36-1.96-2.76-1.58-7.32.27-3.22.8-7.83,1.63-14.09,1.53-11.62,3.81-26.85,6.21-42.98,2.01-13.51,4.26-28.53,5.99-41.16-2.25,13.68-4.8,30.38-7.09,45.32-9.07,59.22-10.72,67.43-12.46,68.68-.43.31-.94.43-1.45.34-2.07-.37-1.98-2.76-1.64-7.33.25-3.21.75-7.79,1.53-13.98.52-4.11,1.14-8.72,1.82-13.61-5.97,38.18-7.18,43.15-8.62,44.19-.39.28-.97.42-1.44.33-2.07-.36-1.97-2.73-1.58-7.63.27-3.39.81-8.22,1.64-14.77.39-3.12.84-6.51,1.33-10.09-4.83,31.03-6.63,39.1-8.35,40.34-.45.32-.99.45-1.51.36-2.04-.36-2.09-2.67-1.73-7.87.24-3.53.77-8.54,1.59-15.32.45-3.69.97-7.71,1.53-11.97-5.19,33.45-7.04,41.97-8.8,43.24-.45.32-.98.45-1.51.35-2.09-.37-1.88-2.74-1.51-7.03.27-3.05.77-7.42,1.55-13.34.46-3.52.99-7.38,1.57-11.51-3.26,20.68-4.64,26.17-6.1,27.22-.45.32-.99.45-1.51.36-2.02-.36-1.94-2.57-1.58-7.15.24-3.13.73-7.59,1.48-13.65,1.4-11.23,3.55-26.52,5.64-41.3.17-1.18.33-2.36.5-3.56-.03.2-.06.4-.09.6-8.84,58.11-11.2,70.99-13.31,72.5-.44.32-.97.44-1.49.35-2.03-.36-1.96-2.7-1.65-7.16.22-3.13.67-7.59,1.38-13.63,1.32-11.18,3.35-26.2,5.31-40.72.4-2.98.82-6.05,1.23-9.15-.51,3.39-1,6.74-1.49,10-7.38,49.75-9.28,60.09-11.27,61.53-.44.32-.97.44-1.5.35-2.05-.36-1.98-2.63-1.63-7.31.24-3.21.71-7.79,1.47-14,1.39-11.48,3.52-26.88,5.58-41.77.21-1.49.41-3,.63-4.53-.47,3.08-.95,6.16-1.41,9.2-8.87,57.76-10.5,65.79-12.29,67.07-.43.31-.95.43-1.46.34-2.04-.36-2.08-2.63-1.66-8.11.28-3.66.84-8.86,1.72-15.88.27-2.19.57-4.5.89-6.9-3.22,19.65-4.19,22.82-5.32,23.63-.39.28-.97.42-1.44.33-2.06-.36-1.87-2.67-1.53-6.87.24-2.96.7-7.18,1.41-12.92,1.32-10.63,3.34-25.08,5.29-39.06.78-5.63,1.61-11.57,2.42-17.42-1.17,7.72-2.35,15.72-3.46,23.22-7.68,52.06-9.65,62.89-11.7,64.37-.45.32-.98.45-1.51.35-2.04-.36-2.04-2.54-1.54-8.21.33-3.73.96-9.04,1.93-16.24.2-1.45.4-2.96.62-4.51-3.48,21.03-4.63,25.11-5.84,25.97-.43.31-.94.43-1.45.34-2.04-.36-2.05-2.5-1.56-8.07.32-3.65.94-8.86,1.89-15.92,1.77-13.08,4.46-30.72,7.05-47.77,1.63-10.68,3.4-22.34,4.95-32.94-2.05,12.91-4.27,27.69-6.27,41.1-8.2,54.75-10.11,65.36-12.03,66.74-.43.31-.96.44-1.47.34-1.95-.34-1.83-2.61-1.69-5.49.11-2.17.38-5.27.81-9.47.8-7.78,2.04-17.94,3.34-28.7.15-1.27.31-2.56.47-3.86,0,.04-.01.09-.02.13-5.82,39.29-6.99,44.82-8.56,45.95-.43.31-.95.43-1.47.34-1.84-.32-1.78-2.33-1.71-5.1.05-1.96.21-4.75.49-8.53.51-6.97,1.34-16.29,2.15-25.3.07-.76.14-1.53.21-2.3-.27,1.73-.54,3.47-.8,5.17-6.34,41.06-7.05,43.31-8.32,44.22-.39.28-.95.41-1.42.33-1.95-.34-2.22-1.35-1.26-13.23.44-5.47,1.12-12.43,1.83-19.52-4.23,27.39-4.8,28.96-5.91,29.76-.39.28-.94.41-1.42.33-1.9-.33-2.06-1.57-1.49-11.01.25-4.11.65-9.27,1.07-14.58-3.84,25.3-4.61,28.28-5.85,29.17-.39.28-.96.42-1.44.33-1.92-.34-2.06-1.53-1.29-11.55.44-5.73,1.14-13.2,1.89-21.11-3.68,24.16-4.18,25.46-5.25,26.23-.39.28-.94.41-1.42.33-1.89-.33-2.16-1.3-1.4-12.59.34-5.08.88-11.47,1.44-17.98-3.98,26.24-4.46,27.59-5.56,28.38-.39.28-.94.41-1.42.33-1.89-.33-2.01-1.32-1.41-11.78.34-5.9.92-13.85,1.48-21.54.09-1.24.18-2.5.28-3.78-.39,2.46-.77,4.91-1.14,7.26-5.65,36.09-5.97,36.32-7.04,37.08-.39.28-.92.4-1.39.32-1.88-.33-1.78-2.29-1.65-5.27.09-2.04.32-4.94.67-8.86.49-5.36,1.19-12.04,1.92-18.94-4.23,28.04-4.7,29.36-5.82,30.17-.39.28-.94.41-1.41.33-2-.35-1.97-2.63-1.74-6.63.16-2.82.53-6.83,1.13-12.25.74-6.67,1.74-14.78,2.82-23.23-5.54,36.26-6.62,40.77-8.04,41.79-.39.28-.97.42-1.45.34-2.02-.36-1.98-2.67-1.75-6.73.16-2.88.54-6.96,1.15-12.47.93-8.46,2.29-19.13,3.68-29.92-.17,1.12-.34,2.22-.5,3.3-6.31,41.32-6.85,43.1-8.1,44-.39.28-.93.41-1.41.32-1.96-.35-1.85-2.57-1.69-5.64.11-2.26.38-5.49.83-9.86.82-8.09,2.12-19.1,3.39-29.75.6-5.03,1.23-10.4,1.83-15.6-.9,5.93-1.81,12.03-2.62,17.53-5.01,33.87-5.7,37-6.99,37.94-.39.28-.95.41-1.42.33-1.96-.35-1.85-2.56-1.7-5.62.11-2.24.37-5.44.8-9.76.79-7.99,2.05-18.75,3.27-29.15.21-1.77.42-3.57.63-5.4-.62,4.06-1.23,8.08-1.79,11.83-5.83,38.66-6.4,40.49-7.66,41.39-.39.28-.95.41-1.42.33-1.87-.33-2.01-1.38-1.46-11.19.27-4.77.7-10.92,1.15-17.11-3.51,22.88-3.99,24.12-5.04,24.87-.39.28-.94.41-1.41.33-1.87-.33-2.03-1.43-1.51-10.74.27-4.78.73-11.07,1.19-17.31-2.45,16.02-2.71,16.21-3.59,16.84-.39.28-.92.4-1.4.32-1.83-.32-1.95-1.13-1.55-10.78.22-5.31.62-12.38,1.01-19.21.01-.16.02-.33.03-.49-.07.43-.13.85-.19,1.27-3.32,21.79-3.46,21.9-4.42,22.58-.39.28-.91.4-1.39.32-1.81-.32-1.79-1.55-1.7-8.39.05-3.85.19-9,.33-14.01-.02.11-.03.23-.05.34-2.42,16.19-2.51,16.26-3.4,16.9-.39.28-.91.4-1.38.32-1.88-.33-1.89-1.44-1.43-10.06.27-4.91.71-11.34,1.18-18.15,0-.07.01-.14.02-.22-1.37,8.37-1.6,8.54-2.3,9.04-.39.28-.9.4-1.38.31-1.86-.33-1.8-1.59-1.47-8.57.19-4.05.52-9.43.87-15.13,0-.09.01-.18.02-.27-2.04,13.18-2.28,13.35-3.12,13.95-.39.28-.92.4-1.39.32-1.92-.34-1.81-2.37-1.62-5.73.13-2.31.4-5.6.83-10.07.8-8.26,2.06-19.43,3.28-30.22.03-.26.06-.52.09-.78-4.15,28.1-4.96,31.37-6.29,32.32-.39.28-.97.42-1.45.34-1.9-.34-1.83-2.47-1.72-5.42.07-2.13.28-5.17.62-9.27.56-6.66,1.41-15.24,2.27-23.83-5.7,37.67-6.72,42.09-8.16,43.12-.39.28-.97.42-1.45.34-1.93-.34-1.83-2.49-1.67-5.73.11-2.3.37-5.57.79-9.99.46-4.85,1.07-10.61,1.73-16.66-3.45,21.99-3.93,23.19-4.93,23.9-.39.28-.93.41-1.4.32-1.9-.34-1.85-1.59-1.54-9.77.18-4.76.51-10.99.86-17.58.08-1.49.16-3.06.24-4.66-.02.13-.04.27-.06.4-3.63,23.04-3.74,23.13-4.68,23.8-.39.28-.9.4-1.38.31-1.91-.34-1.84-1.59-1.38-9.72.25-4.41.65-10.11,1.08-16.18-2.07,13.19-2.3,13.34-3.1,13.92-.39.28-.91.4-1.38.32-1.9-.34-1.89-1.65-1.45-9.48.26-4.58.69-10.62,1.16-17.02h0c-1.91,12.2-2.22,12.42-3.03,13.01-.39.28-.93.41-1.4.32-1.87-.33-1.85-2-1.78-8.24.04-3.38.16-7.8.29-12.22-.37,1.8-.61,1.98-1.06,2.3-.39.28-.91.41-1.39.32-1.75-.31-1.75-1.42-1.74-7.57,0-3.18.06-7.4.13-11.59-.53,3.14-.73,3.29-1.27,3.68-.39.28-.89.4-1.37.31-1.72-.3-1.8-1.66-2.13-7.37-.2-3.38-.37-7.79-.54-12.06-.15-3.78-.33-8.17-.5-11-.62-.44-.91-1.31-.65-2.05.03-.17.06-.43.1-.69.16-1.16.23-1.69.88-2.16.39-.29.89-.4,1.37-.32q1.74.31,2.37,16.08c.04.9.07,1.84.11,2.8,1.33-8.48,1.48-8.59,2.22-9.12.39-.28.9-.4,1.37-.31,1.77.31,1.77,1.47,1.77,7.87,0,2.88-.05,6.54-.11,10.28.44-2.21.73-2.51,1.22-2.87.39-.28.93-.41,1.41-.33,1.86.33,1.84,1.83,1.77,8.17-.04,3.81-.19,8.95-.34,13.92v.14c.08-.57.17-1.14.25-1.68,2.94-19.49,3.08-19.59,4.03-20.27.39-.28.91-.4,1.39-.32,1.9.33,2.06,1.49,1.53,11.28-.2,3.82-.52,8.48-.86,13.31,1.85-11.57,2.11-11.77,2.88-12.32.39-.28.91-.4,1.39-.32,1.93.34,1.93,1.55,1.41,10.91-.22,3.9-.54,8.72-.89,13.71,2.6-16.29,2.81-16.45,3.65-17.04.39-.28.91-.4,1.38-.31,1.83.32,1.95,1.14,1.59,10.87-.2,5.37-.58,12.5-.94,19.39-.04.83-.09,1.68-.13,2.53.63-4.01,1.27-8.15,1.86-12.04,5.3-34.43,5.82-36.07,6.99-36.9.39-.28.93-.41,1.41-.32,1.83.32,1.73,2.15,1.57,4.91-.1,1.83-.32,4.45-.67,8.01-.64,6.6-1.62,15.35-2.65,24.6-.31,2.75-.63,5.66-.96,8.63.51-3.34,1.01-6.64,1.48-9.73,5.37-35.52,5.86-37.08,7.07-37.95.39-.28.94-.41,1.41-.33,1.83.32,1.75,2.24,1.64,4.9-.07,1.84-.26,4.46-.56,8.02-.56,6.6-1.43,15.25-2.36,24.41-.25,2.49-.51,5.08-.77,7.68.25-1.68.49-3.34.73-4.96,4.95-33.79,5.79-37.46,7.22-38.49.39-.28.98-.42,1.45-.34,1.92.34,1.81,2.38,1.63,5.76-.13,2.32-.4,5.64-.84,10.13-.81,8.31-2.07,19.53-3.29,30.37-.14,1.22-.28,2.46-.42,3.71.16-.29.33-.41.53-.55.39-.28.91-.4,1.39-.32,1.89.33,1.96,1.64,1.57,10.58-.14,3.25-.36,7.13-.6,11.18,1.35-8.32,1.57-8.48,2.26-8.98.39-.28.9-.4,1.38-.31,1.87.33,1.99,1.27,1.47,11.16-.22,4.09-.55,9.17-.91,14.41h0c.94-5.31,1.32-5.85,1.96-6.31.39-.28.93-.41,1.41-.33,1.79.32,1.78,1.52,1.69,8.23-.05,3.68-.19,8.6-.32,13.43,0-.04.01-.07.02-.11,3.83-25.21,4.24-26.36,5.31-27.13.39-.28.93-.41,1.41-.32,1.91.34,1.85,1.6,1.5,9.81-.2,4.77-.56,11.01-.93,17.62-.05.81-.09,1.65-.14,2.49,3.01-19.81,3.27-20,4.22-20.68.39-.28.93-.41,1.4-.32,1.93.34,1.99,1.77,1.5,10.54-.29,5.17-.81,12.16-1.32,18.93-.04.51-.08,1.03-.12,1.55.16-1.06.32-2.1.47-3.11,3.77-24.85,3.97-25,4.96-25.7.39-.28.92-.4,1.39-.32,1.89.33,1.94,1.49,1.43,10.46-.29,5.14-.8,12.14-1.29,18.91-.11,1.45-.21,2.95-.32,4.45.78-5.08,1.6-10.48,2.38-15.68,6.3-41.74,7.53-47.6,9.11-48.73.43-.31.95-.43,1.46-.34,1.94.34,1.83,2.51,1.69,5.51-.11,2.18-.36,5.3-.78,9.51-.58,5.84-1.42,13.22-2.3,20.85,4.45-29.46,5.65-34.39,7.15-35.47.44-.32.97-.44,1.49-.35,1.96.35,2.41,1.07.87,16.5-.78,7.76-1.96,17.88-3.16,27.97,6.72-43.84,8.06-50.1,9.66-51.25.43-.31.95-.43,1.45-.34,1.96.34,1.81,2.46,1.6,5.67-.15,2.27-.47,5.52-.97,9.94-.93,8.2-2.34,19.05-3.83,30.55-.66,5.07-1.37,10.6-2.07,16.1.67-4.34,1.33-8.71,1.96-12.87,6.66-43.98,7.69-48.7,9.2-49.78.39-.28.97-.42,1.44-.33,1.98.35,1.84,2.52,1.62,5.82-.15,2.36-.48,5.73-.99,10.3-.82,7.3-2.01,16.57-3.3,26.55,1.96-11.91,2.65-13.84,3.59-14.52.39-.28.96-.42,1.44-.33,1.97.35,2.04,1.3.97,12.8-.57,6.1-1.4,13.96-2.3,22.33,4.78-30.42,5.05-30.6,6.06-31.32.39-.28.91-.4,1.39-.32,1.89.33,2,1.2,1.4,11.53-.33,5.77-.9,13.58-1.46,21.13-.11,1.54-.23,3.12-.34,4.71.22-1.45.44-2.89.65-4.29,4.35-28.88,4.79-30.17,5.92-30.98.39-.28.94-.41,1.41-.33,1.95.34,1.98,1.55,1.33,10.84-.38,5.37-.99,12.43-1.64,19.9-.13,1.49-.27,3.05-.4,4.64.11-.74.22-1.46.33-2.18,4.14-27.42,4.52-28.55,5.61-29.34.39-.28.93-.41,1.4-.32,1.91.34,2.18,1.31,1.33,12.7-.46,6.11-1.21,14.15-1.95,22.03.13-.89.26-1.76.39-2.61,3.95-26.27,4.16-26.43,5.16-27.15.39-.28.92-.41,1.4-.32,1.94.34,2,1.77,1.46,10.49-.32,5.14-.88,12.12-1.43,18.87-.07.86-.14,1.75-.21,2.63.51-3.29,1.01-6.56,1.47-9.59,4.77-31.26,5.06-31.46,6.1-32.21.39-.28.92-.41,1.4-.32,1.91.34,2.15,1.2,1.24,12.37-.51,6.25-1.36,14.75-2.19,22.97-.22,2.17-.44,4.41-.67,6.67.76-4.84,1.53-9.82,2.25-14.51,5.73-37.12,6.03-37.33,7.13-38.12.39-.28.92-.4,1.4-.32,1.95.34,2.04,1.29,1.2,12.69-.48,6.45-1.26,15.25-2.02,23.75-.35,3.89-.72,8.03-1.07,12.07,1.02-6.58,2.07-13.71,3.05-20.27,5.6-37.77,6.5-41.85,7.95-42.89.39-.28.97-.42,1.45-.34,2.03.36,1.91,2.83,1.77,5.96-.11,2.44-.4,5.91-.88,10.61-.88,8.66-2.28,20.19-3.63,31.34-.3,2.51-.62,5.11-.94,7.72,1.57-10.08,3.26-21.36,4.87-32.11,9.19-61.38,11.84-75.88,14.17-77.55.45-.33,1-.45,1.53-.36,2.03.36,2.04,2.47,1.55,7.97-.32,3.59-.93,8.72-1.87,15.67-.66,4.89-1.46,10.44-2.33,16.37,4.76-29.84,6.04-34.96,7.37-35.91.39-.28.97-.42,1.45-.33,2.08.37,1.96,2.64,1.49,7.73-.31,3.45-.91,8.4-1.82,15.1-.16,1.16-.32,2.35-.49,3.59.05-.31.11-.61.16-.91,2-11.35,3.14-15.08,4.26-15.89.45-.32.99-.45,1.52-.36,2.01.35,1.93,2.58,1.56,7.18-.25,3.14-.73,7.61-1.48,13.67-1.03,8.32-2.45,18.76-3.95,29.54,6.52-42.11,7.7-47.24,9.13-48.26.39-.28.96-.41,1.43-.33,2.02.36,1.83,2.53,1.49,6.47-.24,2.73-.68,6.64-1.37,11.96-1.27,9.9-3.16,23.09-5.17,37.06-1.49,10.38-3.19,22.24-4.66,33.08,1.61-10.11,3.31-21.2,4.88-31.38,8.59-55.91,9.94-62.3,11.59-63.48.39-.28.97-.42,1.44-.33,2,.35,1.93,2.52,1.59,6.99-.23,3.03-.69,7.35-1.4,13.23-1.33,10.88-3.37,25.67-5.35,39.98-1.02,7.4-2.12,15.32-3.14,22.92,1.15-7.53,2.32-15.4,3.41-22.74,7.12-47.98,8.82-57.3,10.7-58.65.44-.31.96-.44,1.48-.35,2,.35,1.94,2.49,1.62,6.9-.21,2.98-.65,7.23-1.33,13-1.27,10.69-3.23,25.21-5.12,39.25-1.41,10.42-2.96,21.92-4.23,31.96,2.19-13.3,4.68-29.68,6.91-44.32,8.19-53.84,9.48-59.99,11.08-61.14.39-.28.97-.42,1.44-.33,2.08.37,1.99,2.7,1.63,7.53-.25,3.34-.76,8.1-1.56,14.55-1.48,11.93-3.73,27.92-5.91,43.39-.25,1.78-.51,3.6-.77,5.43.35-2.36.69-4.69,1.02-6.97,7.18-48.85,9.03-59.01,11.01-60.44.44-.32.98-.45,1.5-.35,2,.35,2.02,2.41,1.58,7.78-.29,3.48-.85,8.42-1.71,15.13-1,7.71-2.31,17.01-3.72,26.77,7.04-46.6,8.28-52.18,9.86-53.31.43-.31.94-.43,1.45-.34,2.05.36,1.87,2.7,1.56,6.56-.22,2.79-.66,6.78-1.34,12.2-1.26,10.07-3.14,23.42-5.14,37.55-1.94,13.74-4.26,30.17-5.87,43.09,2.29-13.69,5-31.76,7.39-47.72,7.66-51.12,9.45-61.03,11.29-62.35.43-.31.95-.43,1.47-.34,2.08.37,1.88,2.73,1.52,7.02-.26,3.05-.75,7.4-1.5,13.32-1.4,10.97-3.45,25.31-5.62,40.49-.23,1.62-.47,3.28-.71,4.94.18-1.14.35-2.26.52-3.38,8.53-55.41,10.09-63.11,11.78-64.33.39-.28.97-.42,1.45-.34,2.08.37,1.88,2.75,1.56,6.69-.23,2.85-.69,6.93-1.4,12.46-1.31,10.26-3.25,23.69-5.31,37.9-.13.88-.25,1.76-.38,2.65.51-3.35,1.03-6.7,1.53-10,9.35-61.07,11.66-73.72,13.74-75.21.44-.31.96-.44,1.48-.34,2.08.37,2.12,2.79,1.7,8.23-.29,3.74-.88,9.05-1.82,16.25-1.73,13.29-4.36,30.93-6.91,47.99-1.88,12.57-3.87,25.92-5.4,36.97,3.9-22.11,9.07-55.78,13.56-84.99,3.93-25.57,7.99-52.01,11.28-71.63,5.59-33.35,6.79-34.21,7.84-34.97.45-.32.98-.45,1.51-.35,2.1.37,2.17,2.53,1.35,10.31-.53,4.98-1.48,12.11-2.92,21.82-2.68,18.04-6.56,41.81-10.67,66.97-5.27,32.26-11.42,69.89-14.33,92.18.05-.27.1-.55.15-.82,3.43-19.47,8.16-50.26,12.52-78.63,12.87-83.8,17.35-110.22,20.29-112.33.46-.33,1-.46,1.54-.36,2.05.36,2.13,2.37,1.32,9.61-.27,2.42-.65,5.41-1.16,9.02,1.94-9.59,3.35-14.04,4.58-14.92.48-.34,1.04-.48,1.6-.38,2.5.44,3.33.59-5.21,56.22,2.28-12.59,3.74-17.85,5.01-18.77.46-.33,1-.46,1.54-.36,2.11.37,1.99,2.79,1.57,7.79-.3,3.5-.89,8.5-1.79,15.3-1.68,12.61-4.16,29.12-6.79,46.61-1.62,10.77-3.37,22.44-4.93,33.27.91-5.87,1.82-11.83,2.68-17.48,6.86-45.02,7.81-49.49,9.25-50.52.39-.28.95-.41,1.42-.33,1.98.35,1.86,2.59,1.68,5.98-.13,2.45-.42,5.93-.9,10.64-.85,8.41-2.15,19.52-3.43,30.38.14-.19.28-.29.44-.4.39-.28.92-.4,1.39-.32.97.17,1.62,1.1,1.45,2.07-.05.28-.16.53-.32.75-.59,1.89-2.11,11.92-3.34,20.03-1.24,8.14-2.03,13.21-2.6,16.41ZM740.96,350.17c.21.04.41.03.59,0-.19.03-.39.03-.59,0ZM740.95,350.17h0s0,0,0,0ZM705,422.4c3.42-18,8.56-52.3,13.24-83.58.95-6.31,1.84-12.29,2.7-17.96-6.03,35.67-13.49,79.99-15.94,101.54ZM726.51,265.66c-.86,5.14-1.75,10.62-2.67,16.32.94-5.66,1.84-11.15,2.67-16.32ZM720.08,259.18c-2.73,16.13-5.97,36.91-9.18,57.74,3.33-20.37,6.73-41.34,9.18-57.74ZM424.55,331.79h0s0,0,0,0ZM423.1,332.17c.39-.32.91-.47,1.44-.38-.59-.1-1.09.08-1.44.38Z"/></clipPath></defs><g id="c"><g id="d"><path id="e" class="bo" d="M482.4,557.25s-25.27-3.79-44.23,34.12c-18.96,37.91-66.98,173.13-66.98,173.13l-56.87-72.03s-16.43,113.74-94.78,92.25c0,0,60.73,136.3,110.61,166.09,49.88,29.79,86.53-8.12,86.53-8.12,0,0,85.93-116.26,92.25-131.43,6.32-15.16,0-150.39,0-150.39,0,0-3.79-79.61-26.54-103.62Z"/><path id="f" class="bg" d="M301.69,683.62s-84.67,6.32-90.99,82.14c0,0-2.53,15.16,18.96,17.69,21.48,2.53,56.48,1.36,78.79-66.3,0,0,14.73-32.27-6.75-33.54Z"/><g id="g"><path class="br" d="M373.51,765.65c13.32,3.24,24.22,11.07,34.22,20.17,4.81,4.38,9.78,8.82,14.08,13.7,4.7,5.34,8.11,11.66,11.73,17.75,2.08,3.49,7.54.32,5.46-3.19-3.76-6.33-7.36-12.78-12.17-18.4-4.74-5.54-10.4-10.54-15.82-15.4-10.46-9.38-22-17.36-35.82-20.72-3.95-.96-5.64,5.13-1.68,6.09h0Z"/><path class="br" d="M372.12,769.89c23.49,21.99,44.36,53.24,45.83,86.23.18,4.05,6.5,4.07,6.32,0-1.55-34.69-22.93-67.51-47.68-90.7-2.97-2.78-7.44,1.68-4.47,4.47h0Z"/></g></g><path id="h" class="bo" d="M455.86,564.83s207.25-98.57,241.37-137.75c34.12-39.18,111.21-6.32,111.21-6.32,0,0,51.81,42.97,121.32,70.77,69.51,27.8,104.89,27.8,130.16,101.1,0,0,15.16,284.34,10.11,339.94-5.05,55.6-8.85,103.63-8.85,103.63l-553.51-3.79s-22.75-141.54-26.54-164.28-48.02-208.52-25.27-303.3Z"/><g id="i"><path id="j" class="bq" d="M622.68,894.66s-73.75-246.43-36.87-391.76c0,0,48.25-96.04,163.25-102.36,0,0,35.38-1.26,41.7,17.69,0,0,12.64,0-37.91,151.65-50.55,151.65-130.16,324.78-130.16,324.78Z"/><g id="k"><path class="cb" d="M632.62,553.44c-10.84,72.3-19.48,144.93-25.81,217.76-1.8,20.68-3.4,41.38-4.84,62.09-.28,4.06,6.04,4.04,6.32,0,5.01-72.32,12.22-144.49,21.69-216.37,2.72-20.63,5.64-41.23,8.72-61.81.6-3.98-5.49-5.69-6.09-1.68h0Z"/></g><g id="l"><path class="cb" d="M642.11,660.68c-3.47-.02-6.96,1.83-7.45,5.54-.52,3.95,2.95,6.31,6.5,6.58,3.38.25,6.92-1.7,7.63-5.18.78-3.8-2.82-7.56-6.68-6.21-1.61.56-2.68,2.16-2.21,3.89.43,1.56,2.27,2.77,3.89,2.21-.32.11-1.06-.43-1.14-.76-.06-.26,0-.58.08-.52,0,0-.39.22-.51.26-.48.14-.81-.05-1.28-.09-.17-.01-.41-.13-.4-.17,0,.01.38.87.35.86.25.11.92-.09,1.21-.09,4.07.02,4.07-6.3,0-6.32h0Z"/></g><g id="m"><path class="cb" d="M629.56,765.49c-2.57.68-4.42,3.14-4.45,5.8s1.91,5.12,4.57,5.76,5.46-.46,6.82-2.84c1.43-2.52.91-5.47-.88-7.63-1.06-1.28-3.39-1.18-4.47,0-1.25,1.36-1.13,3.1,0,4.47-.21-.29-.25-.33-.14-.14.11.2.09.14-.06-.2.04.12.07.24.1.36.05.24.04.16-.03-.23-.02.13-.16.72,0,.32.03-.26.02-.24-.05.06l.13-.3c-.18.3-.15.29.09-.03l-.17.18c.3-.21.36-.25.17-.13-.2.12-.13.09.23-.07-.16.04-.68.03-.27.09.26-.03.25-.04-.05-.03.41.07.49.09.26.04-.51-.1-.2-.18-.02.05-.49-.59.37.57-.11-.05l.2.28c-.17-.31-.17-.26,0,.12,0-.6-.02.45,0,.04s-.16.62,0,.03c.19-.72-.3.55.06-.1-.25.29-.29.35-.14.18.16-.16.1-.12-.2.12.6-.25-.61.14.09-.05,1.6-.42,2.73-2.27,2.21-3.89s-2.17-2.66-3.89-2.21h0Z"/></g></g><path id="n" class="bo" d="M613.83,917.41s-39.18-55.6-63.19-123.85c-24.01-68.24-39.18-140.27-35.38-175.66,0,0-6.32-20.22,26.54-34.12l-17.69-27.8s20.22-34.12,83.41-85.93c0,0-18.96,15.16-24.01,29.07-5.05,13.9-34.12,174.39,35.38,366.48l17.69,25.27-22.75,26.54Z"/><path id="o" class="bo" d="M612.57,921.2s46.76-128.9,63.19-155.44c16.43-26.54,118.79-302.03,118.79-328.57s-16.43-30.33-27.8-36.65c-6.95-3.86-5.99-12-11.08-11.85-2.8.08-5.04-2.31-4.73-5.09h0c.33-2.96,3.34-4.82,6.13-3.81l21.31,7.75c.65.24,1.24.62,1.73,1.12,3.41,3.49,19.16,18.98,52.36,42.22,0,0,12.64,7.58,12.64,22.75s8.85,83.41,7.58,88.46c-.95,3.8-24.75,12.6-36.51,16.73-3.07,1.08-4.08,4.92-1.92,7.36,8.28,9.4,25.16,28.66,27.06,31.51,2.53,3.79-68.16,140.12-135.1,232.37-.08.11-.16.21-.24.31-2.91,3.38-54.11,62.61-93.39,90.84"/><g id="p"><path id="q" class="bp" d="M553.17,552.19s-3.79-18.96,11.37-18.96,51.81,24.01,51.81,24.01c0,0,15.16-10.11,36.65,2.53,0,0,40.81-27.8,55.16-26.54,0,0,13.08-7.58,18.14,6.32s2.53,36.65,2.53,36.65c0,0-5.05,32.86-10.11,37.91s-8.85,13.9-17.69,12.64-42.97-17.69-49.29-24.01c0,0-6.32,7.58-32.86-1.26,0,0-13.9,15.16-36.65,18.96,0,0-20.85,8.09-29.38-10.49,0,0,.46-58.21.31-57.75Z"/><path id="r" class="bp" d="M611.3,578.73s-1.26,22.75,15.16,25.27,21.48,0,21.48,0c0,0,5.05-1.26,7.58-15.16,2.53-13.9-1.26-21.48-1.26-21.48,0,0-.64-9.57-17.69-13.9s-23.48,13.5-23.48,13.5l-1.79,11.77Z"/><path class="br" d="M672.92,570.21c-2.24,2.36-4.83,4.36-7.62,6.04-1.38.82-2.64,2.14-4.36,2.19-1.9.1-3.63-.28-5.34-1.49,0,0-.14-.62-.14-.62.54-1.06,1.13-1.78,1.73-2.42,1.15-1.14,2.36-2.08,3.98-2.17.76-.05,1.55-.06,2.29-.21,2.28-.45,6.87-1.39,9.14-1.88,0,0,.31.55.31.55h0Z"/><path class="br" d="M670.2,590.2c-3.57-.61-7.05-1.47-10.65-1.25-2.49.01-4.19-1.72-5.72-3.72,0,0,.04-.63.04-.63,1.91-1.94,4.72-2.92,7.16-1.72,1.38.83,2.77,1.53,4.14,2.33,1.96,1.26,3.8,2.71,5.34,4.45l-.31.55h0Z"/><path class="br" d="M594.59,567.68c3.43.53,6.75.86,10.18.99,1.63.06,3.3-.53,4.88.07,1.84.63,3.33,1.47,4.88,2.98,0,0,.02.63.02.63-.84.93-1.74,1.48-2.66,1.92-1.77.77-3.7,1.12-5.53.42-1.72-.74-3.44-1.36-5.15-2.09-2.46-1.18-4.82-2.58-6.89-4.34l.26-.57h0Z"/><path class="br" d="M593.7,583.76c3.37-.9,6.54-1.95,9.73-3.25,1.51-.62,2.79-1.85,4.48-1.96,1.94-.19,3.65-.06,5.69.66,0,0,.28.57.28.57-.38,1.2-.97,2.08-1.62,2.86-1.3,1.45-2.93,2.57-4.89,2.69-.95.06-1.91.03-2.82.11-3.65.28-7.36-.03-10.87-1.05,0,0,0-.63,0-.63h0Z"/></g><path id="s" class="bk" d="M764.21,324.72s7.58,72.03,12.64,78.35c5.05,6.32-30.33,64.45-48.02,82.14-17.69,17.69-51.81,42.97-56.87,46.76s-25.27,26.54-56.87,3.79c0,0-42.97-74.56-48.02-101.1-5.05-26.54,197.14-109.94,197.14-109.94Z"/><g id="t"><path class="by" d="M424.27,189.5s-1.26-126.37,123.85-171.87c0,0,42.97-20.22,102.36-13.9,59.4,6.32,98.57,45.49,98.57,45.49,0,0,29.07,35.38,37.91,65.71,8.85,30.33,6.32,82.14,6.32,82.14,0,0-5.05,75.82-31.59,139.01-26.54,63.19-51.81,79.61-51.81,79.61,0,0-45.49,69.51-163.02,87.2,0,0-48.02-5.05-59.4-21.48-11.37-16.43-25.27-46.76-25.27-46.76,0,0-22.75-12.64-37.91-83.41,0,0-7.58-41.7,5.05-88.46,0,0-8.85-11.37-17.69-44.23,0,0-2.53-17.69,12.64-29.07Z"/><path id="u" class="bs" d="M707.98,119.37c-3.17,8.58-10.02,27.74-7.58,53.08,1.16,12.07,2.6,6.58,15.16,46.76.91,2.9,2.62,8.43,7.58,11.37,6.35,3.77,14.31,1.1,17.69,0,26.52-8.6,37.17-6.21,50.01-10.36,1.85-14.23,2.44-23.13,2.44-23.13,0,0,2.53-51.81-6.32-82.14-8.85-30.33-37.91-65.71-37.91-65.71,0,0-5.15-5.14-14.51-11.98-.24,14.3-1.36,32.34-11.4,53.05-6.01,12.41-9.81,14.6-15.16,29.07Z"/><ellipse id="w" class="cg" cx="585.51" cy="59.23" rx="113.57" ry="49.12" transform="translate(2.13 136.69) rotate(-13.34)"/><path id="x" class="cc" d="M546.91,505.46l-.32-.03c-2.01-.21-49.31-5.37-61.21-22.56-10.56-15.26-23.01-41.79-25.18-46.47-4.23-2.91-24.52-19.85-38.4-84.6-.09-.5-7.43-42.19,4.78-88.5-2.37-3.54-9.88-16.19-17.39-44.06l-.06-.3c-.11-.77-2.45-18.54,12.62-30.67.11-6.35,1.38-35,15.19-68.59,14.17-34.47,44.79-80.55,110.22-104.37,2.56-1.16,45.68-20.23,103.59-14.07,59.59,6.34,99.69,45.82,100.09,46.22l.17.18c1.2,1.46,29.5,36.13,38.38,66.61,8.86,30.39,6.52,80.84,6.42,82.97-.05.81-5.39,77.02-31.79,139.87-24.93,59.36-48.66,77.86-52.32,80.45-1.96,2.87-13.56,19-37.75,37.17-24.01,18.05-65.49,41.49-126.72,50.71l-.32.05ZM414.12,218.08c8.54,31.65,17.12,43.06,17.2,43.17l.76.99-.32,1.21c-12.35,45.68-5.08,86.94-5.01,87.35,14.61,68.19,36.45,81.53,36.67,81.66l.69.4.36.74c.14.3,13.94,30.32,25.05,46.37,10.13,14.64,53.15,19.9,57.27,20.37,59.88-9.08,100.42-31.94,123.9-49.55,25.5-19.11,36.94-36.32,37.05-36.49l.29-.44.45-.29c.24-.16,25.04-16.99,50.86-78.47,26.06-62.05,31.35-137.45,31.4-138.2.02-.47,2.4-51.7-6.22-81.27-8.37-28.69-35.64-62.6-37.36-64.72-2.06-2.01-40.5-38.68-96.97-44.69-58.02-6.17-100.59,13.48-101.02,13.67l-.21.09c-63.68,23.16-93.49,67.92-107.29,101.4-15.01,36.4-14.89,67.76-14.89,68.07v1.28s-1.01.77-1.01.77c-13.15,9.86-11.84,25-11.67,26.56Z"/></g><g id="y"><path id="z" class="bv" d="M623.94,237.53s1.26,20.22-34.12,24.01-36.65-8.85-36.65-8.85c0,0-1.26-11.37,6.32-15.16,7.58-3.79,17.69-7.58,21.48-7.58s26.54-1.26,41.7,6.32"/><circle id="aa" class="ce" cx="580.97" cy="242.58" r="13.9"/><path id="ab" class="ce" d="M546.85,238.79s1.26-12.64,37.91-15.16c36.65-2.53,42.97,11.37,42.97,11.37,0,0,2.53,2.53,0,3.79,0,0-1.26,0-3.79-2.53s-24.01-7.58-34.12-6.32-25.27,2.53-31.59,7.58c0,0-2.53,2.53-3.79,5.05-1.26,2.53-2.53,3.79-3.79,3.79s-3.79,0-3.79-7.58Z"/></g><g id="ac"><path id="ad" class="bu" d="M438.17,251.43s7.35-10.11,21.48-10.11c15.16,0,20.22,0,31.59,10.11,0,0-2.53,17.69-27.8,18.96-25.27,1.26-24.01-15.16-25.27-18.96Z"/><circle id="ae" class="ce" cx="462.18" cy="250.16" r="11.37"/><path id="af" class="ce" d="M436.91,250.16s2.53-13.9,22.75-15.16c20.22-1.26,31.59,12.64,31.59,12.64,0,0,1.26,1.26,0,2.53-1.26,1.26-3.79-1.26-3.79-1.26,0,0-5.05-7.58-24.01-7.58s-23.89,8.52-23.89,8.52c0,0-.12,1.59-1.39,1.59s-1.26-1.26-1.26-1.26Z"/></g><path id="ag" class="cf" d="M525.18,200.02s16.33-19.7,81.67-23.42c0,0,25.4.46,42.72,36.87,0,0-20.74-7.54-42.22-8.81s-65.42,15.17-65.42,15.17c0,0-19.86,6.56-20.38.13-.51-6.42-4.28-6.87,3.63-19.93Z"/><path id="ah" class="cf" d="M489.07,206.49s-9.77-7.57-58.75-10.47c0,0-14.57-7.86-21.63,26.24,0,0,3.15.85,19.15-2.64,16-3.48,51.86,6.21,51.86,6.21,0,0,16.07,3.61,15.4-2.12-.67-5.73,2.09-6.54-6.03-17.22Z"/><path id="ai" class="ch" d="M476.08,372.74s30.33,45.49,123.85-3.79c0,0,0-6.32-6.32-5.05s-63.19,41.7-109.94,8.85c0,0-3.79-5.05-7.58,0Z"/><g id="aj"><g class="bz"><rect class="cd" x="423.1" y="331.68" width="1.44" height=".48"/><rect class="cd" x="424.55" y="331.78" width="0" height="0"/><rect class="cd" x="710.89" y="259.18" width="9.18" height="57.74"/><rect class="cd" x="723.84" y="265.66" width="2.67" height="16.32"/><rect class="cd" x="705" y="320.86" width="15.94" height="101.54"/><rect class="cd" x="740.95" y="350.17" width="0" height="0"/><rect class="cd" x="740.96" y="350.17" width=".59" height=".04"/><polygon class="cd" points="566.8 508.04 744.36 443.41 744.36 508.04 566.8 508.04"/><polygon class="cd" points="470.46 508.04 422.29 375.68 422.29 335.09 724.16 225.22 743.64 225.22 744.36 227.2 744.36 443.41 566.8 508.04 470.46 508.04"/><polygon class="cd" points="724.16 225.22 422.29 335.09 422.29 225.22 724.16 225.22"/><rect class="cd" x="501.85" y="415.22" width="1.03" height=".24"/><rect class="cd" x="517.65" y="409.49" width="0" height="0"/><rect class="cd" x="517.65" y="409.49" width=".17" height=".02"/><polygon class="cd" points="506.4 439.1 500.74 423.56 500.74 403.3 519.9 403.3 519.9 439.1 506.4 439.1"/><rect class="cd" x="548.33" y="412.72" width=".68" height=".05"/><rect class="cd" x="549.01" y="412.75" width="0" height="0"/><rect class="cd" x="556.95" y="407.38" width="1.07" height=".21"/><rect class="cd" x="546.76" y="399.27" width="12.42" height="17.1"/><rect class="cd" x="476" y="374.82" width="0" height="0"/><rect class="cd" x="476" y="374.81" width="0" height="0"/><rect class="cd" x="608.05" y="342.08" width="0" height="0"/><rect class="cd" x="608.06" y="342.08" width="0" height="0"/><rect class="cd" x="608.06" y="342.08" width="0" height="0"/><rect class="cd" x="608.07" y="342.08" width="0" height="0"/><rect class="cd" x="608.07" y="342.08" width=".14" height=".02"/><rect class="cd" x="608.22" y="342.1" width="0" height="0"/><polygon class="cd" points="609.44 331.47 610.29 333.8 610.29 382.62 473.76 382.62 473.76 331.47 609.44 331.47"/></g><path class="bx" d="M477.05,383.46c.11.02,2.14-12.95,2.28-12.93.23.04,5.78,7.45,6.04,7.5.15.03,1.53-9.39,1.65-9.36.25.04,5.58,10.11,5.86,10.16.11.02.56-3.84.67-3.82.22.04,7.99-2.17,8.21-2.13.15.03.12-1.33.23-1.31.25.04,6.16,7.44,6.42,7.49.15.03,1.59-9.87,1.74-9.84.33.06,4.88,10.06,5.18,10.11.11.02,1.61-9.93,1.75-9.9.24.04,4.69,10.86,5.01,10.92.13.02,1.73-10.56,1.86-10.54.21.04,5.33,6.62,5.55,6.66.14.03.15-1.6.28-1.58.14.03,6.77,1.56,6.93,1.59.14.03,2.04-12.38,2.18-12.35.24.04,5.35,10.35,5.69,10.41.14.02.77-5.09.89-5.07.27.05,5.99,7.47,6.27,7.52.13.02,1.08-6.74,1.19-6.72.16.03,6.43,1.44,6.57,1.47.12.02,1.5-9.37,1.65-9.35.23.04,5.32,9.36,5.63,9.42.13.02.76-5.14.9-5.11.2.04,5.15,8.66,5.38,8.71.15.03,1.35-8.52,1.5-8.49.19.03,6.51,2.44,6.71,2.48.15.03.79-5.19.91-5.16.2.03,6.7,0,6.86.03.15.03.84-5.61.98-5.58.21.04,6.63,5.44,6.88,5.49.12.02.91-5.83,1.02-5.81.42.07,4.11,15.54,4.43,15.59.21.04,2.78-16.76,2.95-16.73"/><path class="bx" d="M543.34,431.05c.28.05,1.02-7.89,1.38-7.83.42.07,4.05,14.66,4.49,14.74.13.02,1.11-7.29,1.28-7.26.41.07,3.48,20.02,4.01,20.12.11.02.74-4.79.84-4.77.18.03,7.35,0,7.57.03.13.02.76-5.07.89-5.05.18.03,6,3.67,6.19,3.71.17.03.64-4.36.76-4.33.22.04,7,2.17,7.2,2.21.15.03,1.67-10.49,1.84-10.46.19.03,5.38,6.27,5.62,6.32.15.03,2.63-16.08,2.83-16.05.22.04,6.62,5.21,6.79,5.24.35.06,1.88-12.7,2.23-12.64"/><path class="bx" d="M549.02,427.26c.18.03,2.62-15.73,2.77-15.71.21.04,5.09,8.57,5.3,8.61.27.05,1.32-8.95,1.57-8.9"/><path class="bx" d="M506.39,409.92c.16.03.35-2.77.48-2.75.19.03,7.1,3.1,7.28,3.13.14.02.73-4.92.86-4.9.25.04,6.02,6.61,6.21,6.64.13.02,1.11-7.01,1.23-6.99.32.06,5.03,9.81,5.33,9.86.14.02,1.14-7.16,1.26-7.14.18.03,7.52-.64,7.74-.6.14.02.41-3.07.54-3.05.27.05,5.88,7.87,6.16,7.92.11.02,1.01-6.39,1.12-6.37.25.04,6.4,5.74,6.59,5.77.14.02,1.5-9.3,1.63-9.27"/><path class="bx" d="M499.11,422.74c.24.04,2.96-17.99,3.17-17.96.56.1,3.56,19.94,4.03,20.02.11.02.8-5.18.91-5.16"/><path class="bx" d="M470.94,389.58c.41.07,1.69-11.72,2.06-11.65.71.12.54,33.47,1.35,33.62.3.05,2.07-13.63,2.39-13.57.64.11,2.27,24.35,2.89,24.46.32.06.12-2.47.43-2.41.42.07,4.46,16.64,4.9,16.72.14.02.65-4.57.8-4.54.33.06,4.25,14.58,4.56,14.64.14.02,2.55-15.4,2.71-15.37.46.08,3.97,17.2,4.48,17.3.11.02.51-3.73.65-3.7.21.04,5.97,5.71,6.18,5.75.11.02.62-4.24.74-4.22.18.03,7.5.65,7.69.68.33.06,2.61-17.03,2.99-16.97"/><path class="bx" d="M427.9,338.73c.14.03.67-4.94.87-4.91.41.07,3.71,16.19,4.14,16.27.19.03.75-5.1.89-5.08.46.08,3.44,17.88,3.94,17.97.15.03,1.98-12.26,2.16-12.23.44.08,3.48,19.85,4.07,19.95.19.03.27-2.61.45-2.58.33.06,4.53,15.09,4.87,15.15.17.03,1.68-10.33,1.82-10.3.46.08,3.12,18.1,3.66,18.2.5.09,5.19-32.95,5.79-32.84,1.14.2-1.33,40.72-.22,40.92.04,0,.86-5.21.92-5.19"/><path class="bx" d="M459.98,372.02c.23.04,1.21-8.62,1.51-8.57.2.04,5.87,3.78,6.06,3.81s2.32-14.12,2.48-14.09c.28.05,4.85,10.31,5.19,10.37.13.02,2.02-12.21,2.15-12.19.21.04,6.68,2.72,6.85,2.75.13.02.86-5.54.97-5.52.16.03,5.41,5.96,5.59,5.99.13.02.27-2.23.39-2.21.18.03,6.92,1.99,7.14,2.03.11.02,2.31-13.87,2.44-13.85.27.05,4.29,12.02,4.66,12.09.14.03,1.99-11.96,2.11-11.94.35.06,4.88,11.66,5.15,11.7.13.02,1.87-11.34,2-11.31.19.03,7.63.08,7.83.12.12.02.55-3.78.66-3.76.23.04,4.93,9.84,5.25,9.9.13.02,2.08-12.48,2.2-12.46.26.05,4.4,11.63,4.68,11.68.13.02,1.75-10.61,1.87-10.59.16.03,6.66,2.14,6.83,2.17.13.02.85-5.53.97-5.51.24.04,6.35,5.86,6.53,5.89.12.02-.06-.44.07-.42.17.03,7.06-.12,7.23-.09.13.02.67-4.5.79-4.48.24.04,5.73,6.92,5.98,6.97.12.02.76-5.05.89-5.03.25.04,6.17,8.29,6.43,8.34.14.02.77-4.99.88-4.97.19.03,7.56.32,7.74.35.13.02,1.21-7.58,1.33-7.56.31.05,4.41,11.25,4.73,11.3.1.02,1.53-9.51,1.67-9.49.25.04,5.44,6.82,5.69,6.86.11.02.31-2.44.43-2.42.37.06,4.87,12.05,5.14,12.1.14.03,2.13-12.74,2.24-12.72.25.04,5.69,9.55,6,9.61.11.02,1.67-10.2,1.79-10.18.45.08,2.86,21.12,3.38,21.21.14.03.88-5.84,1.03-5.81.3.05,4.9,10.68,5.24,10.74.16.03,1-6.78,1.19-6.74.28.05,4.85,9.62,5.08,9.66.18.03.31-2.92.51-2.88.32.06,5.09,12.65,5.44,12.71.11.02,1.84-11.19,1.97-11.17.19.03,5.4,7.01,5.61,7.05.18.03.54-4.28.75-4.24s6.74.21,6.9.24c.18.03,1.46-9.29,1.63-9.26.19.03,6.47,6.27,6.68,6.31.15.03,1.74-10.72,1.89-10.69.21.04,8.33-4.91,8.58-4.87.15.03-.06-.71.12-.68s6.36,5.72,6.62,5.77c.17.03,1.53-9.47,1.67-9.44.23.04,6.82,3.69,7.04,3.73.16.03,1.36-8.74,1.54-8.71.2.04,8.07-2.17,8.27-2.13.25.04,1.29-8.85,1.55-8.8.15.03,5.99,3.43,6.13,3.45,2.02.36,15.53-103.46,18.16-102.99.24.04,5.95,8.93,6.25,8.98.12.02,1.2-7.58,1.33-7.56.17.03,7.38-2.98,7.61-2.94.14.02.58-4.07.71-4.04.3.05,4.32,13.6,4.68,13.67.23.04.64-5.05.88-5.01.71.13.06,33.66.84,33.79.58.1,1.71-13.84,2.42-13.72,1.38.24-5.37,64.32-3.56,64.64.76.13,3.85-25.84,4.54-25.72,1.7.3-8,75.22-5.88,75.6.7.12,5.74-36.75,6.46-36.63"/><path class="bx" d="M421.55,326.26c.1.02.42-2.9.51-2.89.78.14.29,36.31,1.31,36.49.35.06,3-19.63,3.45-19.55.8.14-.04,35.06.72,35.2.31.06,1.01-7.95,1.39-7.88.7.12,1.77,26.01,2.48,26.14.39.07,2.6-16.66,2.93-16.6.91.16.8,31.19,1.52,31.32.18.03,1.72-10.87,1.91-10.83.54.1,2.33,22.85,2.79,22.93.15.03,2.36-14.29,2.51-14.26.54.09,3.52,21.95,3.99,22.03.16.03,2.82-16.99,2.99-16.96.5.09,1.82,25.17,2.46,25.28.19.03,2.29-13.83,2.43-13.81.34.06,4.63,14.35,5.03,14.42.15.03.91-6.06,1.06-6.04.33.06,4.88,13.81,5.21,13.87.15.03,1.3-8.26,1.45-8.23.46.08,3.5,16.69,3.85,16.75.23.04,1.75-11.19,1.97-11.16.77.14,1.19,30.6,1.85,30.72.18.03,1-7.23,1.27-7.19.29.05,4.57,12.37,4.87,12.43.18.03,1.97-12.56,2.21-12.51.43.08,3.54,20.27,4.03,20.36.14.02.68-4.7.82-4.67.46.08,3.91,16.03,4.38,16.12.16.03,1.74-10.57,1.86-10.55.35.06,4.45,14.01,4.83,14.08.11.02.76-5.1.89-5.07.19.03,6.44,3.4,6.64,3.43.11.02.73-5,.88-4.97.29.05,5.77,8.63,6.04,8.68.1.02,1.45-8.99,1.58-8.96.27.05,4.97,10.66,5.32,10.72.13.02,1.37-8.49,1.49-8.47.25.04,5.44,8.63,5.74,8.69.11.02.37-2.89.5-2.86.17.03,5.54,5.61,5.74,5.65.11.02,2.13-12.65,2.23-12.63.2.04,6.74,5.34,6.95,5.38.13.02.92-5.92,1.04-5.9.24.04,5.57,7.85,5.86,7.9.13.02.71-4.71.83-4.69.36.06,4.91,10.88,5.22,10.93.15.03.58-3.87.68-3.85.19.03,6.79.05,6.99.08.13.02.92-5.85,1.03-5.83.28.05,5.41,8.58,5.71,8.64.14.02,2.52-14.97,2.64-14.95.21.04,6.5,6.59,6.73,6.63.15.03,1.24-7.84,1.38-7.81.31.06,5.42,9.02,5.7,9.07.12.02.27-2.4.42-2.38.17.03,6.82-.96,7-.92.12.02.5-3.48.61-3.46.19.03,5.44,6.27,5.64,6.31.15.03,1.36-8.66,1.52-8.63.19.03,7.34-2.85,7.52-2.82.12.02.1-1.2.21-1.18.2.04,5.29,8.29,5.56,8.34.13.02,1.5-9.23,1.62-9.21.18.03,6.95,2.24,7.14,2.27.15.03.87-5.78,1.02-5.76.19.03,7.03,3.08,7.23,3.11.16.03,1.86-11.31,1.99-11.29.2.03,6.62,3.84,6.8,3.87.17.03-.11-.32.05-.29.19.03,5.72,4.94,5.89,4.97.18.03,1.37-8.61,1.51-8.58.16.03,7.11.57,7.32.61.19.03,1.78-11.02,1.94-10.99s6.28,3.24,6.46,3.27c.14.03.53-3.86.68-3.83.21.04,7.34-5.29,7.59-5.25.15.03,1.36-8.72,1.53-8.69.2.04,6.94.51,7.11.54s.8-5.48.96-5.45,7.47.51,7.66.54c.16.03,1.21-7.99,1.4-7.96s5.34,7.39,5.6,7.44c.21.04,2.39-14.99,2.63-14.94.15.03,7.52,1,7.7,1.03.21.04,1.2-8.32,1.46-8.28.18.03,7.35-.28,7.55-.25.29.05,2.68-16.55,2.91-16.51.19.03,7.16.09,7.33.12.32.06,2.14-13.96,2.45-13.91.22.04,8.11-4.35,8.36-4.31.67.12,5.73-36.79,6.46-36.66"/></g><g id="al"><path id="am" class="bm" d="M740.41,240.18c5.92-17.04,28.49-39.95,48.74-34.14,7.73,2.13,14.15,9.04,17.4,15.06,4.98,8.78,5.48,17.62,4.42,27.69-1.36,17.39-8.32,37.56-18.97,52.49-8.95,12.21-21.09,28.33-36.45,18.34-8.94-5.17-15.35-17.3-17.57-26.96-2.63-11.1-2.17-21.81-.98-34.59.66-6.54,1.59-12.56,3.34-17.71l.06-.19Z"/><path id="an" class="cc" d="M792.02,226.15c-3.78-2.38-9.62.85-12.64,2.53-15.78,8.74-19.79,25.83-20.22,27.8-.99,4.52-1.3,9.66,0,10.11,1.79.62,5.16-8.16,7.58-7.58,2.28.55,3.43,9.32,1.26,17.69-2.78,10.72-9.74,15.88-7.58,18.96,1.18,1.68,4.39,1.74,6.32,1.26,2.2-.54,3.69-2.02,5.05-3.79,5.04-6.55,6.21-14.4,6.32-15.16.59-4.23,2.02-14.54-3.79-21.48-1.84-2.2-3.36-2.8-3.79-5.05-.72-3.77,2.55-7.3,6.32-11.37,3.73-4.03,6.11-6.6,10.11-7.58,3.92-.96,6.78.24,7.58-1.26.71-1.32-.65-3.88-2.53-5.05Z"/></g><path id="ao" class="cc" d="M494.47,232.09c-1.36.59-2.53,3.98-3.01,6.37-1.18,4.2-2.33,7.3-4.23,12.86-5.05,14.6-13.53,38.32-18.57,53.07-1.77,5.47-3.5,9.22-2.98,14.05.58,7.52,4.53,17.97,11.1,23.58,3.42,3.1,7.6,4.27,12.09,4.69,6.27.61,15.63-1.16,22.61-1.77,9.7-.89,18.51-3.36,27.8-6.32,6.34-2.08,11.42-4.71,13.9-10.11,3.09-5.86,3.26-12,.52-17.94-1.45-3.97-7.58-12.05-6.31-3.18,1.13,6.05.97,12.41-4.36,17.02-5.78,5.26-12.97,8.44-20.17,10.42-6.65,1.63-14.63,2.81-21.48,3.79-16.14,2.73-27.03-6.31-26.52-23.06.18-3.57.91-7.11,1.71-10.59,3.49-15.59,7.87-28.42,13.32-43.31.78-3.17,10.42-31.87,4.66-29.61l-.07.04Z"/><g id="ap"><path id="aq" class="bn" d="M171.53,628.02s-17.37,77.32-10.13,104.16c2.28,8.43,29.33,18.57,41.72,22.21,22.11,6.5,34.63,1.42,42.46-1.8,12.51-5.15,23.98-9.37,25.78-17.15,1.9-8.21,11.37-54.34,11.37-56.87,0-2.53-5.05-49.29-11.37-53.08s-29.07-22.75-34.12-21.48-26.54,2.53-32.86,5.05c-6.32,2.53-24.01,3.79-32.86,18.96Z"/><g id="ar"><line id="as" class="bi" x1="447.02" y1="404.34" x2="736.41" y2="683.62"/><line id="at" class="bi" x1="358.56" y1="1017.25" x2="738.94" y2="682.36"/><path id="au" class="bj" d="M450.69,400.94c-3.17-2.34-8.69-.32-12.61,1.69-7.5,3.87-14.82,8.51-22.63,11.67-47.72,17.28-102.86,37.53-142.4,77.23-25.54,25.62-48.99,62.86-54.26,87.37-2.72,12.01-6.18,29.8-8.73,44.3-6.09,35-11.65,67.85-14.47,101.28-2.36,28.43-3.4,57.74,2.03,83,5.3,30.01,32.83,67.2,48.08,85.6,7.03,8.64,14.76,15.52,22.98,23.61,14.71,14.43,27.93,28.87,42.91,43.43,10.41,10.75,22.78,22.41,28.73,35.82,1.54,3.37,2.81,6.87,4.06,10.37,2.04,5.53,3.96,11.74,8.41,15.61,7.09,5.72,12.52-3.22,12.54-9.77.38-6-1.34-12.27-3.18-17.91-2.57-7.93-6.25-14.87-11.43-21.49-24.94-30.75-54.28-56.18-78.45-86.83-10.09-12.71-16.43-24.13-24.28-38.2-6.14-11.33-12.11-23.11-16.68-35.16-5.98-15.1-6.78-30.02-6.48-45.94.32-17.73,1.84-35.69,3.5-53.14,3.47-36.77,9.91-75.31,16.51-109.82,1.88-10.7,3.39-19.81,7.15-31.53,6.96-22.39,21.52-43.54,36.52-60.53,7.98-8.99,15.78-17.79,25.1-24.89,15.55-11.46,33.81-21.48,51.12-30.48,15.89-8.2,32.44-14.9,48.69-23.14,9.13-4.64,44.33-20.69,37.33-32.11l-.08-.07Z"/><g id="av"><path class="ce" d="M73.51,593.92h0c.79-5.34,6.16-8.98,12-8.12l668,98.31c5.84.86,9.94,5.89,9.15,11.23h0c-.79,5.34-6.16,8.98-12,8.12l-668-98.31c-5.84-.86-9.94-5.89-9.15-11.23Z"/><path class="bh" d="M73.45,594.1l-.16-.02c46.82,6.89,48.63-53.73,8.09-54.95S3.64,583.83,3.64,583.83c0,0,22.55,54.72,61.72,65.23,39.18,10.51,54.91-48.06,8.09-54.95Z"/></g></g><path id="aw" class="bn" d="M170.26,697.52c-7.44,1.49-26.54,11.37-10.11,30.33,0,0,17.11,4.8,53.42,4.29,0,0,22.41-11.88,8.5-29.57,0,0-45.49-6.32-51.81-5.05Z"/><path id="ax" class="bn" d="M167.73,659.61s-37.54,6.32-7.58,36.65c0,0,44.23,6.32,55.6,5.05,11.37-1.26,29.07-15.16,10.11-29.07,0,0-34.12-12.64-58.13-12.64Z"/><path id="ay" class="bn" d="M187.95,576.2c-6.32,1.26-49.29,12.64-6.32,39.18,0,0-50.34,1.01-17.59,40.94,0,0,47.91,8.34,58.02,9.61,10.11,1.26,27.8-20.22,7.58-37.91,0,0,32.86-13.9-5.05-40.44,0,0-30.33-12.64-36.65-11.37Z"/><g id="az"><path class="ca" d="M197.92,611.65s25.68-23.44,36.29-27.55c10.61-4.11,29.36-.03,34.62,3.47,7.58,5.05,21.07,14.88,26.96,28.93,5.9,14.04,3.37,83.55,2.1,87.34s-16.43,21.48-24.01,31.59c-7.58,10.11-17.69-6.32-17.69-6.32,0,0-15.21-15.4-13.33-54.44s15.85-63.09,15.85-63.09c0,0,0,3.79-41.81,26.66-14.5,7.93-20.11-5.18-23.9-8.97s.98-15.04,4.92-17.63Z"/><path class="ci" d="M298.21,613.6c-6.06-12.62-18.18-24.9-30.8-31.05-9.88-3.94-23.37-5.63-33.63-2.23-12.03,4.41-25.75,17.47-33.9,24.2-3.2,2.79-6,5.34-8.12,9.19-8.14,12.65,2.75,29.63,17.16,29.07,10.38-.82,20.12-8.36,28.59-12.89,3.77-1.84,10.93-7.74,12.38-4.82.49,16.09-10.95,40.13,2.12,54.29,1.6,1.7,5.4,3.83,7.29,2.67.35-.36.18-1.03-.43-1.96-1.25-1.9-3.22-3.85-4.49-5.87-3.74-5.8-3.42-13.82-3.16-20.63.5-13.31,4.1-28.36,9.52-40.3,1.69-5.3-.84-9.68-5.12-3.67-2.05,2.64-5.69,4.72-8.68,6.82-8.35,5.47-16.44,10.25-25.28,15.16-4.13,2.17-8.55,4.47-13.29,4.56-6.73.08-12.78-6.49-12.57-13.17.3-10.52,16.56-19.91,24.15-26.78,11.32-9.47,20.77-13.09,35.05-10.41,14.95,1.99,27.9,14.4,36.08,27.98,6.63,13.49,4.78,27.19,5.63,45.99.04,13.47-.14,24.56-.8,36.99.34,7.65-4.27,12.57-8.69,18.37-5.43,6.81-15.87,20.33-22.19,24.12-1.53.92-5.2,8.54,2.23,6.24,7.82-4.09,13.66-11.99,19.05-18.83,4.53-5.84,10.72-13.16,14.13-19.25,4.05-15.45,3.39-61.62.34-85.32-.53-2.91-1.24-5.44-2.49-8.24l-.1-.22Z"/></g></g><path id="ba" class="bt" d="M996.14,517.01c18.93-2.1,46.73,14.33,63.79,75.62,17.06,61.29,48.65,143.43,73.93,178.82,25.27,35.38,49.29,84.67,46.76,102.36-2.53,17.69,6.32,72.03-29.07,75.82-35.38,3.79-39.18,31.59-111.21,10.11-72.03-21.48-121.18-39.18-130.09-42.33s-74.63-66.35-74.63-66.35c0,0-38.12-43.27-12.74-79.77,25.38-36.5,27.91-36.5,43.07-45.34,15.16-8.85,42.07,7.92,42.07,7.92,0,0-1.63-49.62,18.58-116.6,20.22-66.98,50.6-98.17,69.53-100.27Z"/><path class="br" d="M895.02,731.48c18.34,7.26,36.69,14.52,55.03,21.77,15.8,6.25,31.84,11.9,47.63,18.15,29.27,11.6,62.28,14.2,87.19,35.13,3.09,2.6,7.59-1.85,4.47-4.47-12.64-10.63-27.35-17.41-43.02-22.31-14.68-4.59-29.83-7.7-44.18-13.33-35.11-13.77-70.36-27.17-105.44-41.05-3.78-1.5-5.42,4.61-1.68,6.09h0Z"/><path class="br" d="M977.58,764.39c11.53,3.46,22.04,9.95,32.59,15.6,10.18,5.44,20.5,10.47,30.18,16.81,8.75,5.73,15.72,13.86,23,21.31,7.87,8.05,16.12,16.23,22.29,25.71,2.21,3.4,7.68.23,5.46-3.19-6.33-9.74-14.68-18.18-22.76-26.46-7.48-7.66-14.67-16.05-23.61-22.04-10.01-6.71-20.77-11.92-31.36-17.59-11.03-5.91-22.04-12.62-34.1-16.23-3.9-1.17-5.57,4.93-1.68,6.09h0Z"/><path class="br" d="M924.71,491.92c16.04,6.21,31.91,12.89,48,18.96,8,3.02,16.05,5.89,24.21,8.45,7.13,2.23,14.57,3.75,21.25,7.2,5.59,2.89,10.4,6.86,14.95,11.16,2.56,2.42,5.11,4.86,7.22,7.7,2.19,2.96,4.04,6.16,5.67,9.46,3.27,6.65,5.58,13.72,7.87,20.75,2.74,8.39,5.55,16.76,8.39,25.11,5.74,16.89,11.58,33.75,16.91,50.77,5.18,16.55,9.48,33.37,14.97,49.83,5.27,15.79,11.37,31.32,18.6,46.33,7.17,14.89,15.55,29.08,25.05,42.59,9.19,13.08,18.97,25.81,26.97,39.67,8.12,14.06,13.94,29.25,15.5,45.51,1.59,16.58-.51,33.89-6.52,49.46-2.71,7.02-6.74,13.62-12.77,18.26-5.9,4.55-13.01,7.22-20.05,9.42-8.09,2.53-16.29,4.82-24.5,6.93-8.64,2.22-17.41,4.13-26.29,5.06-8.85.93-17.73.82-26.56-.25-8.86-1.07-17.59-3.06-26.22-5.31-15.55-4.05-30.96-8.72-46.2-13.78-14.86-4.94-29.58-10.37-44-16.49-14.34-6.09-28.4-12.83-42.02-20.4-13.52-7.51-26.61-15.84-39.01-25.08-12.34-9.2-24.15-19.35-34.74-30.54-9.81-10.37-18.98-23.54-16.9-38.57.84-6.05,3.51-11.71,8.23-15.67.98-.82.85-2.5,0-3.35-.97-.97-2.37-.83-3.35,0-11.07,9.3-12,26-6.78,38.61,3.1,7.48,7.91,14.03,13.31,20.02,5.27,5.85,11.03,11.29,16.89,16.53,11.83,10.57,24.54,20.17,37.82,28.83,13.23,8.63,27.05,16.33,41.23,23.27,14.35,7.02,29.07,13.26,44.01,18.9,14.91,5.63,30.05,10.65,45.32,15.24,16.72,5.02,33.63,10.08,50.98,12.36,9.06,1.19,18.18,1.41,27.27.5,9.15-.91,18.18-2.76,27.1-5.01,8.41-2.13,16.8-4.48,25.09-7.04,7.31-2.26,14.71-4.98,20.97-9.49,13.53-9.76,18.72-26.99,21.32-42.75,2.83-17.2,1.98-35.07-3.33-51.73-4.93-15.45-13.36-29.45-22.51-42.73-9.37-13.6-19.49-26.67-28.01-40.84-8.66-14.41-16.03-29.58-22.32-45.16-6.33-15.7-11.63-31.8-16.24-48.08-4.95-17.5-10.36-34.83-16.16-52.07-5.75-17.08-11.65-34.1-17.25-51.23-2.39-7.3-4.88-14.61-8.34-21.48-1.69-3.34-3.62-6.55-5.9-9.52-2.28-2.98-4.91-5.57-7.64-8.14-4.75-4.47-9.82-8.65-15.64-11.65-6.94-3.58-14.55-5.23-21.96-7.54-16.72-5.21-33-11.73-49.24-18.24-7.79-3.13-15.57-6.27-23.4-9.3-1.19-.46-2.6.51-2.91,1.65-.37,1.34.46,2.45,1.65,2.91h0Z"/><path id="bb" class="bl" d="M895.01,728.48s26.54,60.66-30.33,123.85c0,0-6.32,6.32-13.9-2.53,0,0-21.48-10.11-30.33-20.22-8.85-10.11-7.58-21.48-5.05-32.86,2.53-11.37,2.53-31.59,31.59-72.03,0,0,27.8-22.75,48.02,3.79Z"/><path class="br" d="M865.74,846.8c-2.68,4.16-7.14,6.13-11.8,7.33-4.85,1.24-11.32,2.58-16.2.88-4.23-1.47-7.55-4.61-10.01-8.2-2.83-4.15-5.97-8.06-8.34-12.5-1.91-3.59-7.37-.4-5.46,3.19,2.94,5.51,6.83,11.09,10.78,15.95,3.29,4.05,8.96,7.53,14.15,8.33,10.94,1.69,26.08-2.07,32.34-11.78,2.21-3.43-3.26-6.6-5.46-3.19h0Z"/><g id="bc"><path id="bd" class="bn" d="M878.58,727.22s11.37,46.76-31.59,93.52c0,0-14.56-7.58-17.69-7.58,0,0-26.54,2.53-53.08-18.96,0,0-27.54,6.39-40.31-1.23-12.77-7.62-22.36-18.51-20.72-33.28,0,0,22.73-19.15,45.04-25.81l-45.22,19.86s-17.8-9.9-10.82-35.36c0,0,14.78-14.35,56.04-29.92l-58.57,28.66s-21.48-11.37-12.64-36.65c0,0,11.37-17.69,66.98-29.07,0,0-53.08,12.64-63.19,18.96,0,0-18.96-10.11-3.79-41.7,0,0,3.79-21.48,87.2-13.9,0,0,27.8,1.26,51.81,37.91,24.01,36.65,13.9,27.8,26.54,48.02,12.64,20.22,20.22,24.01,24.01,26.54Z"/><g id="be"><path class="ci" d="M750.52,784.82c5.05-1.74,8.74-4.89,13.37-7.26h-3.19c.99.5,1.94,3.04,2.61,4.02,1.16,1.71,2.44,3.36,3.79,4.92,2.72,3.15,5.85,5.81,9.22,8.24,3.3,2.38,6.46-3.09,3.19-5.46-3.13-2.26-5.97-4.87-8.45-7.83-2-2.41-3.42-6.41-5.75-8.45-1.83-1.6-3.72-1.51-5.75-.31-3.72,2.19-6.53,4.6-10.73,6.05-3.82,1.31-2.18,7.42,1.68,6.09h0Z"/></g></g><g id="bf"><path class="br" d="M909.77,733.88h0c-1.75-.07-3.11-1.56-3.03-3.3,3.96-86.6,27.62-134.84,46.9-160.12,16.71-21.91,32.89-30.86,39.63-33.87,1.72-.77,3.71.14,4.28,1.93v.02c.49,1.53-.23,3.17-1.69,3.83-6,2.72-21.61,11.29-37.56,32.4-18.58,24.57-41.38,71.53-45.24,156.09-.08,1.74-1.54,3.09-3.28,3.03Z"/></g></g></svg>