<?xml version="1.0" encoding="UTF-8"?><svg id="b" xmlns="http://www.w3.org/2000/svg" xmlns:xlink="http://www.w3.org/1999/xlink" viewBox="0 0 1124.65 1075.01"><defs><style>.aw{fill:#eda78c;}.ax{fill:#e75741;stroke:#c03a31;}.ax,.ay,.az,.ba,.bb,.bc,.bd,.be{stroke-miterlimit:10;}.ax,.az,.ba,.bd,.be{stroke-width:6.35px;}.bf{fill:#ca9e67;}.bg{fill:#e8d6ca;}.bh{fill:#39393f;}.ay{stroke:#8d6e58;}.ay,.bc{stroke-width:5.08px;}.ay,.bd{fill:none;}.bi{fill:#77452c;}.bj,.az,.bb{fill:#f7b384;}.bk,.ba{fill:#ede1d9;}.bl{fill:#2b2b35;}.az,.bb,.bd,.be{stroke:#77452c;}.bm{fill:#e37a5a;}.ba{stroke:#b27559;}.bn{fill:url(#i);}.bb{stroke-width:3.81px;}.bc{fill:#936037;stroke:#683c11;}.bo{fill:#e5d9d6;}.bp{fill:#77462c;}.bq{fill:#d8cdc7;}.br{fill:#683c11;}.be{fill:#f9c478;}.bs{fill:#d17e5a;}</style><linearGradient id="i" x1="509.06" y1="324.38" x2="421.58" y2="444.78" gradientUnits="userSpaceOnUse"><stop offset="0" stop-color="#de9f73"/><stop offset=".3" stop-color="#c58e66" stop-opacity=".71"/><stop offset="1" stop-color="#896448" stop-opacity="0"/></linearGradient></defs><g id="c"><path id="d" class="bk" d="M415.04,89.3s-63.46-40.62-132,64.73c-68.54,105.35-184.04,364.27-184.04,364.27,0,0-40.62,77.42-59.65,104.08-19.04,26.65-39.35,49.5-39.35,49.5l121.85,58.39s97.73-232.27,114.23-288.12c16.5-55.85,57.12-168.81,60.92-177.69,3.81-8.88,10.15-62.19,17.77-73.62,7.62-11.42,11.42-21.58,26.65-26.65,15.23-5.08,45.69-2.54,49.5,0,3.81,2.54,36.81,19.04,49.5,15.23,12.69-3.81,26.65-5.08,31.73-19.04,5.08-13.96,16.5-10.15,6.35-36.81-10.15-26.65,3.81-25.38-19.04-30.46s-44.42-3.81-44.42-3.81Z"/><path id="e" class="bq" d="M350.87,152.32c-13.81,13.43-23.48,30.48-30.39,48.31-3.67,8.74-5.71,18.13-9.87,26.69-26.55,69.85-48.21,141.31-72.47,212.13-17.37,51.99-36.85,105.49-56.64,156.75-5.94,15.12-12.61,30.41-19.32,45.19-13.81,29.82-25.56,60.51-39.76,90.3,0,0-24.01-12.99-24.01-12.99,13.68-21.87,26.29-44.46,38.29-67.41,15.31-34.04,31.76-72.6,45.25-107.41,39.46-103.48,69.79-210.05,107.3-314.34,1.78-4.65,3.49-9.37,5.22-14.06,3.38-7.74,8.15-14.8,12.74-21.9,11.28-16.65,25.63-32.02,43.64-41.26h0Z"/><g id="f"><path id="g" class="be" d="M628.28,62.64s-21.58-46.96-114.23-58.39c-92.65-11.42-154.85,71.08-154.85,71.08,0,0-34.27,44.42-36.81,118.04-2.54,73.62-31.73,186.58-45.69,208.16-13.96,21.58-43.15,79.96-59.65,97.73-16.5,17.77-31.73,87.58-34.27,118.04s5.08,78.69,5.08,78.69c0,0,6.35,17.77,79.96,27.92,73.62,10.15,189.12,10.15,210.69,3.81,21.58-6.35,87.58-16.5,97.73-24.12,10.15-7.62,57.12-49.5,58.39-59.65s6.35-41.89-2.54-63.46c-8.88-21.58-11.42-29.19-20.31-45.69-8.88-16.5-21.58-41.89-21.58-66s10.15-116.77,17.77-135.81c7.62-19.04,3.81-33,20.31-64.73,16.5-31.73,39.72-45.97,46.51-52.81,6.79-6.84,14.41-17,18.22-25.88s7.62-30.46,5.08-46.96c-2.54-16.5-12.69-43.15-21.58-55.85-8.88-12.69-33-29.19-35.54-30.46s-12.69-3.81-12.69-3.81v10.15Z"/><path class="bi" d="M496.28,36.98c-14.27,8.41-26.22,19.58-38.05,30.95-11.84,11.44-23.83,22.76-35.99,33.87-24.39,22.2-49.08,44.03-75.07,64.38,34-35.97,70.4-69.45,107.74-101.9,12.5-10.71,25.9-21.26,41.37-27.3h0Z"/><path class="bi" d="M601.33,53.68c-87.56,17.42-141.24,98.59-223.01,128.86-8.86,3.13-17.88,5.77-27.13,7.36-3.06.56-6.16.93-9.24,1.29,96.38-26.07,155.65-132.02,259.38-137.51h0Z"/><path class="bi" d="M330.97,318.48c.3,51.22-13.15,102.5-36.85,147.89-11.83,22.75-27.2,43.54-42.55,63.91-15.09,20.34-29.53,41.52-37.07,65.99,3.1-15.67,9.58-30.68,17.59-44.53,11.02-19.42,24.88-37.21,37.09-55.76,35.27-52.79,55.85-114.33,61.79-177.5h0Z"/><path class="bi" d="M358.35,355.32c1.66,28.52-4.79,57.63-16.37,83.67-9.19,20.15-21.84,39.38-37.86,54.67,15.11-20.08,27.71-42,36.88-65.34,9.15-23.36,14.8-48,17.36-73h0Z"/><path class="bi" d="M561.42,417.97c-1.23,54.54,1.94,108.71,9.44,162.74-16.17-52.29-19.42-108.93-9.44-162.74h0Z"/></g><path id="h" class="bj" d="M395.37,285.4s1.27,110.42-3.81,129.46c-5.08,19.04-15.23,45.69-26.65,54.58-11.42,8.88-86.98,37.87-86.98,37.87l51.45,67.48,39.35,73.62,123.12,64.73,60.92-3.81,35.54-79.96-27.92-114.23-53.31-8.88,36.81-97.73,11.42-68.54-159.92-54.58Z"/><path id="j" class="bn" d="M501.23,486.92c3.2.43,6.39.91,9.58,1.42l40.68-133.14-135.81-52.04s-22.52-7.55-20.79,30.38c1.03,1.12,1.66,2.54,1.46,4.07-.34,2.69-.44,5.38-.44,8.07,2.75,31.1.89,53.55-2.01,68.88,11.47,9.28,22.08,20.5,31.02,32.65,3.19,2.11,6.38,4.23,9.65,6.21.65.4,1.19.85,1.62,1.35,4.77,1,7.61,2.86,11.9,6.09,2.58,1.93,5.92,3.01,8.72,4.68,2.8,1.67,5.61,3.31,8.42,4.94,6.18,3.58,12.58,6.78,19.18,9.52,1.8.34,3.61.69,5.43,1.18,2.52.69,4.61,2.06,6.65,3.54,1.61.67,3.19,1.4,4.74,2.19Z"/><path id="k" class="bj" d="M934.8,592.55c2.54-3.81,0-12.69-1.27-15.23s-7.62-12.69-10.15-15.23-24.12-16.5-29.19-16.5-11.42,2.54-19.04,3.81c-7.62,1.27-8.88,3.81-16.5,7.62s-7.62,8.88-12.69,17.77c-5.08,8.88-6.35,17.77-6.35,22.85s1.27,33,1.27,33l-10.15,20.31s-13.96,25.38-16.5,29.19c-2.54,3.81-12.69,16.5-17.77,21.58-5.08,5.08-10.15,13.96-17.77,21.58-7.62,7.62-19.04,19.04-19.04,19.04l-20.31,12.69-19.04-31.73-49.5-91.39s-20.31-41.89-24.12-49.5-1.27-15.23-19.04-31.73c-17.77-16.5-48.23-21.58-48.23-21.58l3.81,30.46,55.85,166.27-7.62,57.12,8.66,18.65,38.3,49.89s29.19,29.19,48.23,36.81c19.04,7.62,44.42-5.08,44.42-5.08l35.54-31.73,31.73-52.04,27.92-52.04,16.5-31.73,11.42-20.31s8.88,0,25.38-2.54c16.5-2.54,13.96-8.88,26.65-13.96s6.35-7.62,8.88-15.23c2.54-7.62,0-7.62-2.54-13.96l-17.77-57.12Z"/><path id="l" class="ba" d="M260.52,510.54c-1.29,2.42,1.36,5.01,2.81,7.09,45.52,47.78,55.61,95.22,36.59,176.56-9.26,40.47-20.76,58.54-28.81,66.53-5.86,5-8.48,13.52-6.03,21.28,4.82,19.8,11.77,46.45,12.73,63.52-1.03,47.51-6.8,118.91-7.56,165.76.08,13.58-.61,21.11,1.57,25.66,4.09,4.56,10.29,6.63,20.87,10.77,33.65,11.69,91.9,25.09,134.75,24.05,69.06-2.7,121.3-1.79,168.39-22.98,7.4-4.17,7.89-13.84,6.99-22.47-1.9-23-8.79-53.83-10.04-79.22-.68-20.94-1.78-46.39,2.48-66.18,4.75-14.92,12.31-32.64,20.66-46.71,5.81-9.24,15.44-24.78,23.34-34.38,4.86-7.35,11.31-18.06,15.34-26.69,3.25-7.43,6.26-21.69,6.8-31.58.76-12.79-3.99-30.98-7.92-44.96-1.21-3.96-2.27-6.56-4.25-9.75-19.07-42.74-28.24-72.18-52.84-135.24-3.99-10.3-6.03-15.97-8.36-21.95-.24-.55-.19-.8-1.01-1.89-2.36-3.26-6.2-3.59-10.19-4.96-6.35-1.95-15.64-4.81-18.95-5.82-3.39-.98-2.75,1.93-1.46,3.86,7.34,12.76,23.87,51,21.43,74.78-.59,7.47-1.44,13.61-2.53,20.71-3.18,19.61-6.64,25.58-13.57,35.6-5.05,7.19-11.14,14.91-16.92,22.33-5.06,6.46-11.01,13.94-15.83,19.98-3.38,3.55-4.93,8.23-9.57,8.91-1.45.12-2.56-.3-3.68-.9-4.66-2.56-12.36-6.82-21.88-12.13-35.03-19.53-94.13-52.98-110.51-65.45-2.55-1.96-5.25-4.31-7.8-6.61-15.68-14.17-21.98-26.06-25.45-33.95-7.43-14.03-28.39-39.8-33.49-47.11-7.36-9.53-20.62-22.65-28.2-30.95-2.14-2.48-5.77-2.97-9.04-1.66-4.03,1.23-14.05,4.26-17.24,5.25-.59.18-1.15.41-1.54.81l-.08.09Z"/><path id="m" class="bd" d="M510.14,504.49c28.4,6.59,57.09,13.27,83.27,26.11,26.18,12.84,47.47,32.57,59.65,59.06,3.58,7.79,7.37,16.01,10.33,24.06,18.23,49.53,55.31,96.31,78.88,143.53"/><path id="n" class="bi" d="M643.79,796.09c17.96,34.81,57.7,89.16,100.48,89.57,18.56.04,35.11-11.1,47.3-24.55,6.33-6.89,11.92-14.53,17.41-22.34,21.99-31.25,42.06-63.84,60.06-97.54,4.51-8.42,8.88-16.92,13.11-25.48,2.14-4.27,4.2-8.58,6.27-12.88,1.04-2.08,2-4.53,3.95-6.91,2.62-3.55,7.66-4.56,11.66-5.01,3.48-.55,6.94-1.22,10.37-2,9.09-2.03,18.18-4.57,26.48-8.79,4.11-2.11,8-4.66,11.29-7.89l2.03,1.76c-3.03,4-6.96,7.23-11.13,9.91-10.44,6.6-22.36,10.42-34.42,12.65-2.24.43-4.9.82-7.06,1.18-1.93.39-3.11.78-4.34,2.25-1.12,1.33-2.03,3.37-3.1,5.58-2.08,4.33-4.16,8.67-6.31,12.97-21.34,43.09-46.01,84.53-73.67,123.86-13.77,19.82-30.5,40.58-54.85,47.46-24.87,7.42-50.26-5.55-68.48-21.72-21.86-19.41-39.34-43.31-52.71-69.2,0,0,5.65-2.88,5.65-2.88h0Z"/><path id="o" class="bi" d="M708.3,799.56c.56-6.93,4.17-12.56,8.01-17.89,14.4-19.89,33.55-35.61,51.09-52.4,22.16-20.99,39.76-45.71,56.94-70.98,2.89-4.24,5.79-8.34,8.06-12.59,2.27-4.26,3.83-8.64,4.04-13.21.27-4.65-1.02-9.49-1.47-14.74-.36-5.26-.29-10.71,2.73-15.69l1.09.08c2.3,5.21,2.56,10,3.21,14.9,1.29,10.99,1.9,21.4-3.93,31.65-2.53,4.78-5.54,9.03-8.37,13.24-17.15,25.36-34.9,51.23-57.37,72.44-16.4,15.95-34.29,30.31-48.54,48.16-4.85,5.88-8.45,12.66-14.59,17.48,0,0-.9-.46-.9-.46h0Z"/><path id="p" class="bp" d="M528.77,444.26c-2.46,14.66-7.77,28.43-11.99,42.57-4.07,13.98-7.2,27.99-10.15,42.26,0,0-.62,0-.62,0-.78-3.68-1-7.43-.96-11.17.2-11.2,3.2-22.1,6.69-32.65,4.46-13.59,9.62-27.81,12.02-41.87,0,0,5,.86,5,.86h0Z"/><path id="q" class="bi" d="M894.14,619.13c.08,2.07-.34,4.37-.63,6.43-.6,3.55-1.45,7.11-2.72,10.5-1.01,2.74-2.29,5.39-3.83,7.9-1.75,2.45-4.5,4.1-7.19,5.36,0,0-.82-.76-.82-.76.93-2.6,1.43-5.35,2.58-7.82,1.25-2.21,2.29-4.54,3.17-6.94,1.32-3.58,2.27-7.46,2.83-11.25.17-1.12.29-2.78.55-3.88,0,0,6.06.45,6.06.45h0Z"/><g id="r"><g id="s"><g id="t"><path class="bo" d="M479.64,821.03c-24.37,20.44-59.78,18.14-88.4,8.92-4.13-1.46-8.34-3.01-11.97-5.53,7.39,1.12,18.07,1.51,25.6,2.09,27.46,2.07,47.94,2.85,74.78-5.48h0Z"/><path class="bo" d="M637.06,797.54c-8.78,12.08-23.03,19.12-37.53,21.71-14.15,2.95-30.02,3.7-43.35-2.74,7.25.89,14.29.97,21.3.36,10.43-.95,21-3.1,31.17-5.61,10.31-2.71,19.49-7.54,28.4-13.72h0Z"/></g><line id="u" class="ay" x1="675.68" y1="376.88" x2="385.02" y2="657.38"/><line id="v" class="ay" x1="764.53" y1="992.46" x2="382.48" y2="656.12"/><path id="w" class="bc" d="M671.99,373.47c3.18-2.35,8.73-.32,12.66,1.69,7.53,3.88,14.88,8.54,22.73,11.72,47.93,17.36,103.31,37.69,143.02,77.56,25.65,25.73,49.2,63.13,54.49,87.75,2.73,12.06,6.21,29.93,8.76,44.5,6.11,35.15,11.7,68.15,14.53,101.72,2.37,28.55,3.42,58-2.04,83.37-5.33,30.14-32.97,67.49-48.29,85.97-7.06,8.67-14.83,15.59-23.08,23.71-14.77,14.49-28.05,29-43.09,43.62-10.45,10.8-22.88,22.51-28.86,35.98-1.54,3.38-2.83,6.9-4.08,10.42-2.05,5.55-3.97,11.79-8.45,15.68-7.13,5.74-12.58-3.23-12.59-9.81-.38-6.03,1.35-12.33,3.19-17.99,2.58-7.97,6.27-14.94,11.48-21.58,25.04-30.89,54.52-56.43,78.8-87.2,10.14-12.77,16.5-24.24,24.39-38.37,6.17-11.38,12.17-23.21,16.75-35.31,6-15.16,6.81-30.15,6.5-46.14-.32-17.81-1.85-35.85-3.51-53.37-3.49-36.93-9.95-75.64-16.58-110.3-1.89-10.74-3.41-19.9-7.18-31.66-6.99-22.49-21.62-43.73-36.68-60.8-8.02-9.03-15.85-17.86-25.21-25-15.62-11.51-33.95-21.57-51.34-30.61-15.96-8.23-32.58-14.97-48.9-23.24-9.17-4.66-44.52-20.78-37.5-32.25l.08-.07Z"/><g id="x"><path class="br" d="M1050.81,567.29h0c-.79-5.37-6.19-9.02-12.05-8.15l-670.92,98.74c-5.87.86-9.98,5.91-9.19,11.28h0c.79,5.37,6.19,9.02,12.05,8.15l670.92-98.74c5.87-.86,9.98-5.91,9.19-11.28Z"/><path class="ax" d="M1050.88,567.47l.16-.02c-47.03,6.92-48.84-53.96-8.12-55.19s78.08,44.89,78.08,44.89c0,0-22.65,54.95-61.99,65.51-39.35,10.56-55.15-48.27-8.12-55.19Z"/></g></g></g><path id="y" class="bj" d="M255.75,510.05s-7.62-1.27-29.19,13.96c-21.58,15.23-54.58,66-54.58,66l-73.62,112.96s-33,45.69-40.62,62.19c-7.62,16.5-16.5,46.96-13.96,59.65,2.54,12.69,10.15,39.35,39.35,40.62,29.19,1.27,46.96-1.27,59.65-3.81,12.69-2.54,50.77-19.04,59.65-26.65,8.88-7.62,60.92-58.39,60.92-58.39l40.62-40.62,8.88-5.08s22.85,0,29.19-2.54c6.35-2.54,10.15-7.62,15.23-7.62s13.96,5.08,16.5,6.35c2.54,1.27,16.36,8.09,21.51,6.58,5.15-1.51,15.3-2.77,19.11-5.31,3.81-2.54,12.69-19.04,12.69-19.04,0,0,6.45-1.38,10.15-5.08,3.81-3.81,11.42-15.23,7.62-19.04-3.81-3.81,5.08-6.35,5.08-6.35l20.31-3.81,8.88-12.69s-2.54-16.5-3.81-20.31-3.81-11.42-3.81-11.42c0,0,3.81-12.69-1.27-19.04-5.08-6.35-15.23-11.42-21.58-15.23-6.35-3.81-44.42-19.04-44.42-19.04l-16.5,3.81s-22.85,15.23-30.46,20.31-19.04,16.5-27.92,21.58-20.31,19.04-20.31,19.04c0,0-1.27,0-1.27-13.96,0-8.59-1.27-26.65-5.08-40.62-8.67-31.79-12.69-31.73-25.38-49.5-5.32-7.45-21.58-27.92-21.58-27.92Z"/><path id="z" class="bi" d="M393.79,320.18c3.65,33.56,7.35,68.38-1.61,101.56-5.93,22.17-17.7,43.61-36.55,57.47-28.16,20.73-65.02,21.24-96.57,32.51-15.82,5.45-30.27,14.32-42.42,25.81-20.73,19.12-34.69,43.99-49.43,67.75-11.82,19.3-23.36,38.83-36.49,57.32-13.11,18.53-27.12,36.29-40.41,54.48-13.2,18.09-26.03,36.6-35.87,56.73-11.98,24.33-16.63,54.64,2.31,76.68,10.91,12.76,28.49,15.34,44.5,15.18,27.78,0,55.74-6.86,79.89-20.74,14.61-8.33,27.15-19.49,39.28-31.14,11.68-11.22,24.2-24.47,35.69-36.09,9.25-9.73,20.25-21.09,30.16-29.98,6.49-5.8,13.02-11.73,21.09-15.38,10.8-4.83,22.86-2.54,33.68-5.38,7.82-2,14.52-8.04,21.99-11.61,7.85-3.98,19.18-5.28,25.72,1.79,0,0-1.65,1.71-1.65,1.71-4.1-3.35-9.7-3.51-14.67-2.28-10.65,2.75-19.2,12.09-30.15,14.92-10.98,3.11-22.72.84-32.95,5.37-7.24,3.31-13.68,9.17-19.75,14.55-9.81,8.76-20.8,20.1-29.99,29.67-11.61,11.63-24.05,24.79-35.88,36.14-12.28,11.78-25.31,23.32-40.24,31.8-24.91,14.25-53.56,21.63-82.22,21.77-17.33.34-36.64-2.8-48.58-16.68-9.93-11.15-14.6-26.21-14.49-40.97.31-20.53,8.75-39.75,18.91-57.08,8.52-14.78,18.25-28.87,28.3-42.6,13.47-18.23,27.57-35.89,40.66-54.18,19.72-27.37,36.52-57.02,55.23-85.21,9.39-14.27,19.95-27.94,32.57-39.55,12.56-11.76,27.62-20.9,43.93-26.41,31.83-11.3,66.86-13.39,94.55-33.39,27.13-19.93,39.83-54.25,42.36-86.96,1.89-22.41.12-45.02-1.68-67.52l.76-.07h0Z"/><g id="aa"><path class="bi" d="M88.45,757.71c28.77-29.82,70.26-41.07,107.72-55.56,57.74-20.9,106.6-57.73,152.9-97.16,12.2-9.56,23.99-19.27,37.44-27.29,15.89-9.36,31.55-4.6,46.67,3.3,9.13,4.71,18.08,9.67,26.8,15.06,6.57,3.93,14.66,9.42,16.96,17.63,3.25,10.97-1.38,23.45-10.38,30.25-1.76,1.16-3.59,2.79-5.87,2.48-.95-.13-1.71-.53-2.49-1.2.72-2.17,1.48-3.01,2.41-3.66.97-.54,1.92-1.1,2.8-1.81,5.35-4.16,8.61-11.07,8.83-17.77.52-10.41-7.17-15.72-15.53-20.46-8.72-5.07-17.56-9.99-26.57-14.49-13.13-6.65-26.66-11.23-40.24-3.16-12.77,7.58-24.7,17.34-36.51,26.51-31.66,25.46-63.35,52.05-99.66,70.94-18.03,9.65-36.81,17.96-56.11,24.73-37.96,13.56-79.03,23.36-109.17,51.65h0Z"/><path class="bi" d="M409.87,606.51l22.47,12.37c8.93,5.3,21.25,9.9,26.26,19.8,6.11,12.65,2.93,29.22-7.57,38.63-1.83,1.57-3.88,2.92-6.09,3.98l-2.59-5.79c3.42-1.49,6.36-3.94,8.6-6.96,6.61-9.18,8.04-23.6.15-32.45-4.6-5.25-14.61-10.19-20.61-13.98,0,0-22.03-13.13-22.03-13.13l1.41-2.46h0Z"/><path class="bi" d="M403.07,640.76c6.07,5.37,12.66,10.15,19.65,14.21,5.25,3.09,11.45,5.75,15.89,10.41,11.4,11.85,9.97,32.29-3.62,41.89-3.73,2.72-8.1,4.35-12.47,5.23l-1.12-6.25c3.68-.62,7.22-1.81,10.21-3.84,11.3-7.4,12.63-24.15,3.75-34.01-4.03-4.45-9.42-6.86-14.6-10.17-7.06-4.43-13.65-9.57-19.68-15.28l2-2.18h0Z"/><path class="bi" d="M393.94,676.67c3.71,3.38,13,11.83,16.57,15.08,3.65,3.56,7.66,6.39,11.21,10.19,3.96,4.18,6.24,11.12,2.53,16.22-1.57,2.36-2.77,4.43-4.67,6.44-7.87,7.87-19.22,10-29.89,9.15-10.58-1.39-19.64-6.84-28.41-12.23,0,0,3.44-5.34,3.44-5.34,7.91,5.16,16.39,10.56,25.68,12.02,8.75,1,19.26-.69,25.72-6.96,1.58-1.57,2.99-3.81,4.21-5.54,1.28-1.82,1.61-3.37,1.14-5.38-1.25-5.68-6.96-9.14-10.92-13.15-1.73-1.67-6.3-6.05-8.08-7.76,0,0-10.77-10.35-10.77-10.35l2.23-2.39h0Z"/><path class="bd" d="M470.56,636.58c2.25-.36,3.84,2.11,4.65,4.24,2.23,5.83,3.54,12.13,2.86,18.34s-3.51,12.32-8.43,16.18c-5.93,4.65-16.63,5.02-24.15,5.43"/></g><g id="ab"><path class="bb" d="M959.64,647.27c13.88,3.32,7.03,17.04-1.47,22.36-13.09,8.47-31.3,15.42-46.73,10.74-9.59-2.59-17.36-12.73-9.06-21.36,3.15-3.34,8.11-5.74,13.37-7.36,7.98-2.47,16.51-3.58,24.96-4.42,6.66-.59,12.78-1.37,18.7-.02l.22.06Z"/><path class="bb" d="M962.39,615.82c8.34,2.58,10.26,14.32,7.98,21.81-2.65,8.26-9.57,12.76-18.04,15.5-8.95,2.7-19.14,4.02-28.57,5.09-7.24.51-15.98,2.33-22.45-1.42-6.3-4.05-7.99-13.99-4.89-20.77,3.84-7.94,13.76-10.19,21.86-12.62,6.08-1.66,12.41-3.05,18.85-4.47,9.03-1.59,16.66-4.89,25.07-3.18l.2.06Z"/><path class="bb" d="M956.17,573.94c5.94.82,10.25,6.47,12.52,12.08,3.99,8.64,2.8,18.8-4.9,24.91-7.28,6.31-17.77,8.87-27.77,11.95-9.93,2.69-22.64,7.75-32.26,4.38-8.8-3.34-12.65-14.88-8.69-23.18,2.28-5.28,7.26-9.19,12.65-12.01,6.97-3.72,16.54-7.75,25.47-11.69,9.02-3.94,16.62-7.41,22.79-6.47l.2.03Z"/><path class="bb" d="M920.75,549.1c11.37-5.29,24.75-8.95,33.66,2.34,9.99,12.67-2.54,24.39-14.57,31.15-12.41,6.96-27.43,13.35-41.22,8.06-5.89-2.1-9.03-6.24-8.88-12.69.91-16.18,18.43-22.74,30.78-28.75l.23-.1Z"/><path id="ac" class="bj" d="M936.85,588.42c-4.68,9.5-23.15,9.96-41.26,1.04-4.58-2.26-8.32-7.06-12.84-7.06-5.08,0-15.23,2.54-17.77,0-5.17-5.17.95-24.69,2.54-27.92.69-1.39,5.11-2.81,6.35-3.81,7.18-5.84,23.21-3.21,38.67,4.41,18.11,8.92,28.99,23.85,24.31,33.35Z"/><path id="ad" class="bi" d="M836.23,588.95c-1.33-7.41,2.12-15.2,7.5-20.14,4.38-4.93,9.71-9.43,15.18-13.13,13.04-8.65,29.76-16.66,45.51-10.46,10.7,4.08,19.43,11.64,27.4,19.58,3.14,3.22,6.22,6.89,8.25,11.38,6.1,13.35-1.21,27.61-16.73,27.11-7.2,0-13.7-3.34-19.79-6.69-7.79-4.15-15.3-8.02-21.59-14.31,0,0,.31-1.05.31-1.05,11.24-1.24,20.64,8.2,30.04,12.77,4.95,2.55,11.36,3.88,16.48,2.19,7.33-2.26,8.54-11.1,5.49-17.4-1.56-3.45-4.1-6.59-7.01-9.56-11.14-10.97-25.65-23.61-42.42-18.89-12.99,3.37-24.89,11.16-34.45,20.49-4.99,4.87-9.3,9.74-8.18,17.25,0,0-6.01.87-6.01.87h0Z"/></g><path id="ae" class="az" d="M528.01,142.61c-43.15,31.73-30.46,20.31-57.12,40.62-17.07,13.01-29.19,11.42-36.81,24.12-11.24,18.74-36.18,44.56-48.23,40.62-7.34-2.4-5.08-11.56-16.5-20.31-1.15-.88-13.94-13.55-27.92-7.62-9.33,3.96-15.57,14.81-17.77,20.31-5.08,12.69-2.36,27.54,0,39.35,2.54,12.69,8.88,24.12,21.58,38.08,3.7,4.07,12.28,10.71,25.38,13.96,10.4,2.58,15.14-.7,21.58-5.08,4.69-3.19,4.57,15.49,13.96,34.27,6.35,12.69,22.85,33,30.46,40.62,7.62,7.62,44.42,38.08,85.04,53.31,10.43,3.91,16.16,6.49,26.65,8.88,8.93,2.04,20.78,1.77,31.73-2.54,1.64-.64,10.21-2.66,20.31-12.69,7.5-7.44,9.84-12.5,21.58-30.46,3.07-4.7,8.01-12.93,17.77-29.19,15.73-26.22,17.17-28.94,19.04-33,4.83-10.47,9.6-21.02,11.42-35.54.96-7.62.64-13.97,0-26.65-.92-18.25-2.72-20.69-2.54-34.27.17-12.76,1.92-22.23,2.54-25.38,2.76-14,8.88-18.27,8.88-27.92,0-11.42-.22-10.43-3.81-35.54-3.81-26.65-12.32-38.76-13.96-41.89-3.29-6.27-11.42-20.31-22.85-30.46-16.89-15.01-26.65-6.35-29.19-5.08-8.26,4.13-26.65,15.23-44.42,26.65-9.5,6.11-22.21,12.12-36.81,22.85Z"/><path id="af" class="bi" d="M357.41,210.49c56.81,10.31,105.69-26.51,148.81-58.38,22.52-16.46,45.16-32.87,69.3-46.97,12.57-7.06,24.46-13.84,38.15-19.01,17.17-5.97,30.07,8.03,37.95,21.26,20.33,31.89,30.4,70.03,27.99,107.08-1.87-37.02-13.93-72.91-34.59-102.7-5.61-7.94-12.75-17.81-23.03-17.88-6.15.36-11.5,3.9-17.39,6.65-16.32,8.27-32,17.76-47.26,27.9-22.28,14.64-46.28,32.43-68.45,47.29-37.8,25.73-85.06,48.87-131.48,34.75h0Z"/><path id="ag" class="bs" d="M340.79,235.9c2.54,0,33,7.62,34.27,52.04,0,0,0,3.81-1.27,5.08-1.27,1.27-3.81-1.27-3.81-5.08s0-13.96-2.54-16.5-3.81-3.81-7.62-1.27c-3.81,2.54-3.81,7.62-3.81,10.15s0,10.15,2.54,13.96c2.54,3.81,1.27,3.81,1.27,3.81,0,0-2.54,1.27-5.08-1.27s-6.35-6.35-7.62-15.23c-1.27-8.88,6.35-17.77,8.88-20.31s-2.54-7.62-6.35-11.42-6.35-5.08-7.62-6.35-3.81-7.62-1.27-7.62Z"/><g id="ah"><path class="bs" d="M609.24,235.26s-15.23,5.08-10.15,34.27c5.08,29.19,16.5,44.42,16.5,44.42,0,0,5.08,12.69-2.54,20.31,0,0-5.08,3.81-12.69,5.08,0,0-6.35,3.81-7.62,6.35-1.27,2.54,7.62,1.27,7.62,1.27,0,0,11.42-1.27,13.96-2.54s7.62-6.35,8.88-8.88,3.81-12.69,1.27-19.04-8.88-17.77-12.69-26.65c-3.81-8.88-7.62-24.12-7.62-26.65s-3.81-10.15,5.08-27.92Z"/><path class="bs" d="M566.72,313.32s-7.62,2.54-10.15,11.42,1.27,13.96,7.62,16.5c6.35,2.54,17.77,0,19.04-1.27,1.27-1.27,5.08-2.54,6.35-2.54s-1.27-2.54-5.08-3.81c-3.81-1.27-10.15,0-11.42,0s-8.88,1.27-10.15-2.54c-1.27-3.81,1.27-8.88,2.54-11.42,1.27-2.54,1.27-6.35,1.27-6.35Z"/></g><path id="ai" class="bf" d="M468.99,211.78s.1-.16.32-.46c2.09-2.78,14.61-17.44,47.91-18.58,0,0,8.88-1.27,31.73,7.62,0,0,10.15,3.81,13.96,19.04,0,0,1.27,3.81-10.15-1.27-11.42-5.08-22.85-7.62-27.92-8.88-5.08-1.27-34.27-6.35-55.85,2.54Z"/><path id="aj" class="bf" d="M609.87,225.74s12.69-24.12,47.6-29.83c0,0,5.71-.63,8.25.63,2.54,1.27,3.81,1.27,3.81,3.81v7.62s0,3.81-2.54,3.81-11.42,0-20.31,3.81c-8.88,3.81-12.69,3.81-27.92,13.96-15.23,10.15-10.15-1.27-8.88-3.81Z"/><g id="ak"><path id="al" class="bg" d="M486.6,244.84s33.79,47.54,60.45,12c0,0,8.25-13.33-5.71-23.48s-35.54-3.81-35.54-3.81c0,0-11.74,1.38-19.2,15.29Z"/><path id="am" class="bh" d="M524.83,225.74c-5.25,0-9.81,3.95-12.2,9.79,1.95.53,3.31,1.77,3.31,3.22,0,1.83-2.17,3.31-4.94,3.46-.08.84-.14,1.7-.14,2.57,0,10.51,6.25,19.04,13.96,19.04s13.96-8.52,13.96-19.04-6.25-19.04-13.96-19.04Z"/><path id="an" class="bl" d="M478.75,245.59c-.47-.55-.69-1.25-.36-1.9,2.09-4.08,10.96-18.32,33.76-20.49,26.65-2.54,36.81,10.15,36.81,10.15,0,0,5.08,5.08,5.08,6.35s0,3.81-5.08,2.54c0,0-3.81-5.08-7.62-6.35-3.81-1.27-10.15-6.35-24.12-3.81-13.96,2.54-20.31,5.08-22.85,7.62-2.54,2.54-8.88,6.35-10.15,6.35-.86,0-1.27,0-2.54,0-.66,0-2.54,0-2.93-.46Z"/></g><g id="ao"><path id="ap" class="bg" d="M610.91,254.25s-1.04,17.18,21.81,18.45c0,0,19.04,2.54,22.85-11.42,3.81-13.96,2.54-16.5,2.54-16.5,0,0-2.54-8.88-13.96-8.88s-17.77,3.81-20.31,5.08-12.69,6.35-12.93,13.28Z"/><path id="aq" class="bh" d="M645.17,234.98c-5.19-1.21-10.72,2.61-13.92,8.98,1.62.64,2.73,1.89,2.73,3.36,0,2.1-2.27,3.8-5.06,3.81-1.5,8.93,1.96,17.01,8.14,18.46,6.56,1.54,13.69-4.96,15.93-14.52,2.24-9.56-1.26-18.55-7.82-20.08Z"/><path id="ar" class="bl" d="M610.75,248.73c4.39-5.39,24.82-27.74,51.21-12.31.69.41,1.41.78,2.14,1.11,1.21.55,3.28,1.69,4.16,3.44.27.54.42,1.17.48,1.82.27,2.83-2.35,5.05-5.12,4.42-1.29-.29-2.49-.68-2.97-1.16-.9-.9-1.27-2.54-11.42-5.08s-21.58,1.27-25.38,3.81c-2.91,1.94-6.56,5.36-8.12,6.87-.65.63-1.38,1.16-2.19,1.57-1.81.91-4.65,1.84-4.1-1.62.17-1.05.65-2.03,1.32-2.86Z"/></g><g id="as"><path id="at" class="aw" d="M521.02,361.55s40.62,20.31,85.04,10.15l5.08-1.27s-11.42,19.04-12.69,21.58-7.62,11.42-21.58,11.42-25.38-6.35-29.19-8.88c-3.81-2.54-13.96-15.23-19.04-20.31s-11.42-7.62-11.42-8.88,3.81-3.81,3.81-3.81Z"/><path id="au" class="bm" d="M612.41,366.63s3.81-1.27,5.08,0c1.27,1.27,2.54,3.81-1.27,5.08s-20.31,8.88-36.81,8.88-36.81-3.81-41.89-6.35-17.77-7.62-19.04-8.88c-1.27-1.27,0-6.35-2.54-7.62-2.54-1.27-3.81,2.54-3.81,2.54,0,0-1.27,2.54-2.54,2.54s-1.27-3.28-1.27-5.08c0-1.27,1.27-3.81,3.81-5.08,1.37-.68,2.74-.63,3.71-.44.72.14,1.37.44,1.55,1.33.21.99,1.21,2.57,3.62,4.18,3.81,2.54,17.77,7.62,24.12,8.88,6.35,1.27,45.69,7.62,67.27,0Z"/><path id="av" class="bm" d="M525.91,372.06s18.6,18.05,23.68,20.58c5.08,2.54,15.87,4.44,24.75,4.44s7.62,0,12.69-1.27c5.08-1.27,11.42-7.62,12.69-8.88,1.27-1.27,3.81-5.08,3.81-5.08,0,0-3.81,11.42-7.62,15.23-3.81,3.81-15.23,6.35-19.04,6.35-11.42,0-19.04-2.54-25.38-6.35-4.87-2.92-24.51-22.13-25.58-25.03Z"/></g></g></svg>